<svg width="422" height="23" viewBox="0 0 422 23" fill="none" xmlns="http://www.w3.org/2000/svg">
<path opacity="0.4" d="M0 8.625H9.65922H15.525V2.875L0 8.625Z" fill="#456372"/>
<path opacity="0.8" d="M15.5249 2.70588V23L22.9999 0L15.5249 2.70588Z" fill="#456372"/>
<path d="M15.5249 8.625H9.7749L15.5249 23V8.625Z" fill="#456372"/>
<path opacity="0.6" d="M0 8.625L10.925 12.075L9.44772 8.625H0Z" fill="#456372"/>
<path fill-rule="evenodd" clip-rule="evenodd" d="M34.763 17.9296C34.9537 17.8076 35.0924 17.7031 35.1791 17.6159C35.3178 17.4591 35.4392 17.3197 35.5085 17.1978C35.5779 17.0584 35.6125 16.919 35.6125 16.7273C35.6125 16.6053 35.5779 16.4659 35.5085 16.3091C35.4796 16.2568 35.4527 16.2046 35.4257 16.1523C35.3717 16.0478 35.3178 15.9432 35.2485 15.8387C35.1618 15.6993 35.0578 15.5424 34.9364 15.4031C34.8625 15.3182 34.8015 15.2398 34.7455 15.1678C34.7095 15.1216 34.6756 15.078 34.6417 15.0371C34.6095 15.0649 34.5748 15.0951 34.5377 15.1275C34.435 15.217 34.3137 15.3227 34.1736 15.4379L34.1285 15.471L34.1284 15.471C33.95 15.6018 33.7545 15.745 33.5148 15.8735C33.2721 16.0129 32.9774 16.1349 32.648 16.2394C32.3186 16.3265 31.9718 16.3788 31.5731 16.3788C30.8276 16.3788 30.2208 16.2394 29.7181 15.9606C29.2153 15.6818 28.8166 15.3159 28.5045 14.8455C28.1924 14.375 27.9671 13.8523 27.8457 13.2424C27.7243 12.6326 27.655 12.0053 27.655 11.3432C27.655 10.7159 27.7243 10.1061 27.8457 9.51366C27.9671 8.92124 28.1751 8.39851 28.4698 7.92805C28.7645 7.4576 29.146 7.09169 29.6314 6.79548C30.1168 6.49927 30.7236 6.35987 31.4344 6.35987C31.8505 6.35987 32.2145 6.41215 32.5439 6.49927C32.8733 6.58639 33.1681 6.69093 33.4281 6.83033C33.6882 6.96972 33.9309 7.12654 34.1389 7.30078C34.347 7.47502 34.5377 7.64927 34.711 7.82351C34.9711 7.57957 35.1965 7.31821 35.4045 7.03942C35.6125 6.76063 35.7166 6.48184 35.7166 6.20305C35.7166 6.02881 35.6645 5.85457 35.5779 5.69775C35.4912 5.54093 35.3698 5.40154 35.2485 5.29699L35.2078 5.26269C35.1051 5.17569 34.9608 5.05339 34.763 4.93108C34.555 4.79169 34.2776 4.6523 33.9482 4.5129C33.6188 4.37351 33.2201 4.26896 32.7867 4.16442C32.3532 4.0773 31.8505 4.02502 31.313 4.02502C30.2035 4.02502 29.2326 4.21669 28.4178 4.5826C27.603 4.94851 26.9095 5.47124 26.3721 6.13336C25.8173 6.79548 25.4186 7.57957 25.1412 8.48563C24.8638 9.39169 24.7251 10.3849 24.7251 11.4478C24.7251 12.5106 24.8465 13.5038 25.1065 14.3924C25.3492 15.2811 25.748 16.0478 26.2854 16.7099C26.8228 17.372 27.499 17.8773 28.3311 18.2432C29.1633 18.5917 30.1515 18.7834 31.2784 18.7834C31.8678 18.7834 32.3879 18.7311 32.8387 18.644C33.3068 18.5568 33.6882 18.4349 34.0002 18.3129C34.3123 18.1909 34.5723 18.0515 34.763 17.9296ZM46.4826 18.4349C46.1532 17.9296 45.9972 17.1106 45.9972 15.9955L45.9799 11.9705C45.9799 11.3258 45.9105 10.7508 45.7718 10.2629C45.6331 9.77502 45.3904 9.37427 45.061 9.04321C44.7316 8.72957 44.2982 8.48563 43.7781 8.32881C43.258 8.17199 42.6166 8.1023 41.8537 8.1023C41.299 8.1023 40.7789 8.15457 40.2934 8.24169C39.7907 8.34624 39.3573 8.45078 38.9759 8.6076C38.5944 8.76442 38.2997 8.92124 38.0743 9.1129C37.849 9.30457 37.7449 9.49624 37.7449 9.6879C37.7449 9.8273 37.797 10.0364 37.9183 10.3326C38.0223 10.6288 38.1957 10.8902 38.3864 11.1341C38.8372 10.8728 39.3052 10.6462 39.7733 10.4546C40.2414 10.2629 40.7789 10.1584 41.3857 10.1584C42.0271 10.1584 42.4952 10.2803 42.7899 10.5068C43.0846 10.7508 43.2233 11.1341 43.2233 11.6743V12.0576H42.7726C42.5992 12.0576 42.4432 12.0576 42.2698 12.075C41.7671 12.1099 41.2123 12.1621 40.6055 12.2667C40.0161 12.3712 39.4439 12.5455 38.9238 12.8068C38.4037 13.0682 37.9703 13.4167 37.6236 13.8697C37.2769 14.3228 37.1035 14.9152 37.1035 15.6296C37.1035 16.2046 37.2075 16.6924 37.3982 17.0932C37.6063 17.494 37.849 17.8076 38.161 18.0515C38.4731 18.2955 38.8198 18.4697 39.2012 18.5743C39.5826 18.6788 39.964 18.7311 40.3454 18.7311C41.0736 18.7311 41.6977 18.6265 42.2005 18.4C42.7206 18.1735 43.1193 17.8947 43.4314 17.5637C43.5007 17.9296 43.6741 18.2258 43.9341 18.4174C44.1942 18.6091 44.5756 18.7137 45.0784 18.7137C45.3211 18.7137 45.5465 18.6788 45.7718 18.644C45.9972 18.6091 46.2226 18.5394 46.4826 18.4349ZM43.2927 13.5387H42.998C42.8939 13.5387 42.8073 13.5387 42.7032 13.5561C42.3565 13.5909 42.0098 13.6258 41.663 13.6781C41.3163 13.7303 41.0042 13.8349 40.7442 13.9743C40.4841 14.1137 40.2588 14.3053 40.0854 14.5318C39.912 14.7584 39.8253 15.0546 39.8253 15.4031C39.8253 15.8038 39.9294 16.1349 40.1547 16.4137C40.3801 16.6924 40.7615 16.8318 41.299 16.8318C41.559 16.8318 41.8191 16.797 42.0618 16.7273C42.3045 16.6576 42.5125 16.5705 42.7032 16.4485C42.8939 16.3265 43.0326 16.2046 43.1367 16.0826C43.2407 15.9432 43.2927 15.8212 43.2927 15.7167V13.5387ZM52.3078 8.5379C51.8223 8.81669 51.4756 9.09548 51.2502 9.35684C51.1635 8.99093 50.9555 8.72957 50.6434 8.57275C50.314 8.41593 49.9153 8.34624 49.4472 8.34624C49.3643 8.34624 49.2912 8.35116 49.2226 8.35577C49.1622 8.35983 49.1053 8.36366 49.0485 8.36366C48.9986 8.37201 48.9488 8.37636 48.9008 8.38054C48.8487 8.38509 48.7989 8.38943 48.7537 8.39851C48.6497 8.39851 48.563 8.41593 48.4937 8.43336V23H51.3716V17.7728C51.3889 17.8076 51.4756 17.8947 51.5796 17.9993C51.701 18.1038 51.857 18.2258 52.065 18.3303C52.2731 18.4523 52.5331 18.5568 52.8279 18.644C53.1226 18.7311 53.4867 18.7834 53.8854 18.7834C54.3708 18.7834 54.8736 18.6962 55.359 18.522C55.8444 18.3478 56.2952 18.0515 56.6939 17.6334C57.0927 17.2326 57.4047 16.6576 57.6648 15.9432C57.9248 15.2288 58.0462 14.3053 58.0462 13.2076C58.0462 12.2493 57.9422 11.4478 57.7168 10.8031C57.5088 10.1584 57.214 9.63563 56.85 9.23487C56.4859 8.85154 56.0698 8.55533 55.6017 8.38108C55.1336 8.20684 54.6309 8.11972 54.1108 8.11972C53.3826 8.11972 52.7932 8.25912 52.3078 8.5379ZM55.0643 13.2773C55.0643 12.8591 55.0296 12.4584 54.9603 12.0924C54.8909 11.7265 54.7696 11.4129 54.6135 11.1341C54.4575 10.8728 54.2321 10.6637 53.9547 10.5068C53.6774 10.35 53.348 10.2803 52.9492 10.2803C52.3598 10.2803 51.9437 10.4023 51.7183 10.6114C51.4929 10.8379 51.3716 11.0818 51.3716 11.3606V15.8735C51.4756 15.9955 51.6836 16.1174 51.9784 16.2743C52.2731 16.4311 52.6025 16.5008 52.9839 16.5008C53.6947 16.5008 54.2148 16.222 54.5615 15.647C54.8909 15.0894 55.0643 14.3053 55.0643 13.2773ZM60.0746 16.0478C60.1093 16.3614 60.1613 16.6576 60.2653 16.9364C60.4733 17.494 60.8201 17.9296 61.2708 18.2955C61.7563 18.6265 62.4497 18.8008 63.3166 18.8008C63.7673 18.8008 64.1834 18.7485 64.5648 18.6614C64.9462 18.5743 65.2756 18.4523 65.5356 18.2955C65.7957 18.1561 66.0037 17.9818 66.1598 17.8076C66.3158 17.6334 66.3851 17.4591 66.3851 17.2674C66.3851 17.0584 66.3158 16.8493 66.2118 16.6228C66.1078 16.3962 65.9344 16.1349 65.7264 15.8212C65.6956 15.8418 65.6589 15.8746 65.6125 15.9159L65.6123 15.916L65.6118 15.9164L65.6118 15.9165L65.6118 15.9165C65.5798 15.945 65.5432 15.9775 65.501 16.0129C65.397 16.1 65.2756 16.1871 65.1369 16.2568C64.9982 16.3265 64.8422 16.3962 64.6688 16.4659C64.4954 16.5182 64.3047 16.5531 64.114 16.5531C63.3166 16.5531 62.9178 16.0652 62.9178 15.072V10.5417H65.865V8.39851H62.9005V6.8826C62.9005 6.53412 62.8311 6.25533 62.7271 6.02881C62.6058 5.8023 62.4671 5.62805 62.2764 5.50609C62.103 5.36669 61.8949 5.27957 61.6696 5.24472C61.4442 5.19245 61.2188 5.17502 60.9934 5.17502C60.9414 5.17502 60.8851 5.17938 60.8287 5.18374C60.7724 5.18809 60.7161 5.19245 60.664 5.19245C60.612 5.20116 60.56 5.20552 60.508 5.20987C60.456 5.21423 60.404 5.21859 60.352 5.2273C60.248 5.2273 60.1439 5.24472 60.0399 5.26215V15.1068C60.0399 15.4205 60.0399 15.7341 60.0746 16.0478ZM73.1465 16.6576C73.4932 16.6576 73.8052 16.6228 74.0826 16.5356C74.3427 16.4659 74.5854 16.3614 74.8108 16.2568C75.0188 16.1523 75.2095 16.0129 75.3656 15.8909C75.5216 15.7515 75.6603 15.6296 75.7816 15.525C75.955 15.7341 76.1284 16.0129 76.3191 16.344C76.5098 16.675 76.5965 16.9538 76.5965 17.1629C76.5965 17.4765 76.4231 17.7553 76.0764 18.0167C75.7816 18.2432 75.3656 18.4349 74.8108 18.6091C74.2733 18.7659 73.6319 18.8531 72.9037 18.8531C72.2449 18.8531 71.5862 18.7659 70.9447 18.5917C70.3032 18.4174 69.7311 18.1212 69.2284 17.7031C68.7256 17.2849 68.3269 16.7099 68.0148 15.9955C67.7027 15.2811 67.5467 14.375 67.5467 13.2947C67.5467 12.4061 67.6854 11.6394 67.9628 10.9947C68.2402 10.35 68.6042 9.80987 69.055 9.39169C69.5058 8.97351 70.0259 8.65987 70.6153 8.45078C71.1874 8.25912 71.7769 8.15457 72.3836 8.15457C73.1638 8.15457 73.8399 8.27654 74.3947 8.52048C74.9495 8.76442 75.3829 9.09548 75.7296 9.51366C76.0764 9.93184 76.3191 10.4023 76.4751 10.9424C76.6311 11.4826 76.7005 12.0402 76.7005 12.6326V12.9288C76.7005 13.0508 76.7005 13.1553 76.6831 13.2947C76.6831 13.3557 76.6788 13.4167 76.6745 13.4777L76.6745 13.4778C76.6701 13.5388 76.6658 13.5997 76.6658 13.6606C76.6658 13.7826 76.6485 13.8697 76.6311 13.9394H70.4073C70.4593 14.7235 70.702 15.3682 71.1354 15.8909C71.5515 16.3962 72.2276 16.6576 73.1465 16.6576ZM73.7186 10.6985C73.9786 11.1167 74.1173 11.6743 74.1173 12.3538H70.4073C70.4073 11.622 70.5806 11.0644 70.9274 10.6637C71.2741 10.2629 71.7248 10.0538 72.3143 10.0538C72.9904 10.0538 73.4585 10.2803 73.7186 10.6985ZM81.7108 9.40912C81.7975 9.28715 81.9015 9.14775 82.0402 8.99093C82.1789 8.83412 82.3522 8.69472 82.5603 8.57275C82.7683 8.45078 82.9937 8.34624 83.2364 8.25912C83.4791 8.17199 83.7392 8.13715 84.0339 8.13715C84.1927 8.13715 84.3515 8.15177 84.5237 8.16762L84.5713 8.17199C84.762 8.20684 84.9354 8.25912 85.0914 8.32881C85.2475 8.39851 85.3862 8.50305 85.4902 8.64245C85.5942 8.78184 85.6462 8.93866 85.6462 9.13033C85.6462 9.44396 85.5769 9.79245 85.4208 10.1932C85.2648 10.594 85.1088 10.9424 84.9527 11.2212C84.71 11.0296 84.4673 10.8728 84.2419 10.7682C83.9992 10.6637 83.7218 10.6114 83.3924 10.6114C82.959 10.6114 82.5949 10.7334 82.3002 10.9947C82.0055 11.2561 81.8495 11.5523 81.8495 11.9182V18.7834H78.9716V8.41593C79.0409 8.39851 79.1276 8.38108 79.2316 8.38108C79.2768 8.37201 79.3266 8.36766 79.3787 8.36312C79.4267 8.35893 79.4765 8.35459 79.5264 8.34624C79.5731 8.34624 79.6269 8.34272 79.6861 8.33884C79.7586 8.33409 79.8392 8.32881 79.9251 8.32881C80.3759 8.32881 80.7746 8.41593 81.104 8.59018C81.4161 8.78184 81.6241 9.04321 81.7108 9.40912ZM90.2057 8.99093C90.0671 9.14775 89.963 9.28715 89.8764 9.40912C89.7897 9.04321 89.5816 8.78184 89.2696 8.59018C88.9402 8.41593 88.5414 8.32881 88.0907 8.32881C88.0048 8.32881 87.9241 8.33409 87.8516 8.33884C87.7924 8.34272 87.7387 8.34624 87.6919 8.34624C87.6421 8.35459 87.5922 8.35893 87.5443 8.36312C87.4922 8.36766 87.4424 8.37201 87.3972 8.38108C87.2932 8.38108 87.2065 8.39851 87.1372 8.41593V18.7834H90.015V11.9182C90.015 11.5523 90.1711 11.2561 90.4658 10.9947C90.7605 10.7334 91.1246 10.6114 91.558 10.6114C91.8874 10.6114 92.1648 10.6637 92.4075 10.7682C92.6329 10.8728 92.8756 11.0296 93.1183 11.2212C93.2743 10.9424 93.4304 10.594 93.5864 10.1932C93.7424 9.79245 93.8118 9.44396 93.8118 9.13033C93.8118 8.93866 93.7598 8.78184 93.6557 8.64245C93.5517 8.50305 93.413 8.39851 93.257 8.32881C93.101 8.25912 92.9276 8.20684 92.7369 8.17199L92.6893 8.16762C92.5171 8.15177 92.3583 8.13715 92.1995 8.13715C91.9047 8.13715 91.6447 8.17199 91.402 8.25912C91.1593 8.34624 90.9339 8.45078 90.7259 8.57275C90.5178 8.69472 90.3444 8.83412 90.2057 8.99093ZM103.59 15.9955C103.59 17.1106 103.746 17.9296 104.075 18.4349C103.815 18.5394 103.59 18.6091 103.364 18.644C103.139 18.6788 102.914 18.7137 102.671 18.7137C102.168 18.7137 101.787 18.6091 101.527 18.4174C101.267 18.2258 101.093 17.9296 101.024 17.5637C100.712 17.8947 100.313 18.1735 99.7929 18.4C99.2902 18.6265 98.6661 18.7311 97.9379 18.7311C97.5565 18.7311 97.1751 18.6788 96.7937 18.5743C96.4123 18.4697 96.0656 18.2955 95.7535 18.0515C95.4414 17.8076 95.1987 17.494 94.9907 17.0932C94.8 16.6924 94.696 16.2046 94.696 15.6296C94.696 14.9152 94.8693 14.3228 95.2161 13.8697C95.5628 13.4167 95.9962 13.0682 96.5163 12.8068C97.0364 12.5455 97.6085 12.3712 98.198 12.2667C98.8047 12.1621 99.3595 12.1099 99.8623 12.075C100.036 12.0576 100.192 12.0576 100.365 12.0576H100.816V11.6743C100.816 11.1341 100.677 10.7508 100.382 10.5068C100.088 10.2803 99.6196 10.1584 98.9781 10.1584C98.3713 10.1584 97.8339 10.2629 97.3658 10.4546C96.8977 10.6462 96.4296 10.8728 95.9789 11.1341C95.7882 10.8902 95.6148 10.6288 95.5108 10.3326C95.3894 10.0364 95.3374 9.8273 95.3374 9.6879C95.3374 9.49624 95.4414 9.30457 95.6668 9.1129C95.8922 8.92124 96.1869 8.76442 96.5683 8.6076C96.9497 8.45078 97.3831 8.34624 97.8859 8.24169C98.3713 8.15457 98.8914 8.1023 99.4462 8.1023C100.209 8.1023 100.85 8.17199 101.371 8.32881C101.891 8.48563 102.324 8.72957 102.653 9.04321C102.983 9.37427 103.226 9.77502 103.364 10.2629C103.503 10.7508 103.572 11.3258 103.572 11.9705L103.59 15.9955ZM100.59 13.5387H100.885V15.7167C100.885 15.8212 100.833 15.9432 100.729 16.0826C100.625 16.2046 100.486 16.3265 100.296 16.4485C100.105 16.5705 99.897 16.6576 99.6542 16.7273C99.4115 16.797 99.1515 16.8318 98.8914 16.8318C98.354 16.8318 97.9726 16.6924 97.7472 16.4137C97.5218 16.1349 97.4178 15.8038 97.4178 15.4031C97.4178 15.0546 97.5045 14.7584 97.6779 14.5318C97.8512 14.3053 98.0766 14.1137 98.3367 13.9743C98.5967 13.8349 98.9088 13.7303 99.2555 13.6781C99.6022 13.6258 99.949 13.5909 100.296 13.5561C100.4 13.5387 100.486 13.5387 100.59 13.5387Z" fill="#456372"/>
<path fill-rule="evenodd" clip-rule="evenodd" d="M138.448 5.15375C138.217 5.41418 137.945 5.67461 137.659 5.96246L136.529 7.04529H139.809V8.38856H134.529V7.68951L136.366 5.4553C136.706 5.11263 136.992 4.81108 137.196 4.55066C137.4 4.30393 137.645 4.00238 137.754 3.81049C137.89 3.59118 138.584 2.91955 138.516 2.08343C138.217 1.15137 137.36 1.06913 136.856 1.13766C136.339 1.15137 135.74 1.85042 135.645 2.45352C135.645 2.45352 134.706 2.31645 134.501 2.2205C134.515 1.96007 134.964 0.822408 135.835 0.315256C136.257 0.123361 136.529 0.0274136 137.019 0.0274136C137.4 0.0274136 137.741 0.0822408 138.054 0.178188C138.367 0.274136 138.625 0.424911 138.843 0.616806C139.061 0.808701 139.428 1.04172 139.537 1.32956C139.714 1.69964 139.85 2.08343 139.85 2.46722C139.891 3.31704 139.17 4.15316 139.034 4.37247C138.87 4.6466 138.68 4.90703 138.448 5.15375ZM132.324 23C126.063 23 121 17.8874 121 11.5959C121 5.29082 126.077 0.191895 132.324 0.191895V4.22169C128.281 4.22169 125.001 7.52503 125.001 11.5959C125.001 15.6669 128.281 18.9839 132.324 18.9839C135.536 18.9839 138.258 16.9005 139.251 14.0083C137.291 14.0083 134.515 13.9946 134.515 13.9946V9.77294C134.515 9.77294 143.076 9.77294 143.511 9.77294C143.607 10.3623 143.661 10.9791 143.661 11.5959C143.647 17.9011 138.584 23 132.324 23ZM147.458 0H148.221V22.8081H147.458V0ZM158.523 16.8456C157.87 17.2431 157.054 17.4487 156.101 17.4487C155.107 17.4487 154.277 17.2843 153.637 16.9416C152.984 16.5989 152.562 16.1329 152.344 15.5298C152.14 14.9267 152.031 14.022 152.031 12.8159V9.21097C152.031 8.32002 152.059 7.6621 152.127 7.20977C152.195 6.77116 152.385 6.33254 152.712 5.92133C153.039 5.51013 153.474 5.18117 154.046 4.94815C154.617 4.71514 155.271 4.59178 156.006 4.59178C157.013 4.59178 157.843 4.76996 158.496 5.14005C159.15 5.51013 159.571 5.96246 159.789 6.51073C159.993 7.059 160.034 6.89452 160.034 8.04589V9.00536L157.258 8.96424V8.12813C157.258 7.49762 157.19 7.10012 157.04 6.93564C156.89 6.78486 156.577 6.70262 156.101 6.70262C155.543 6.70262 155.203 6.79857 155.053 6.99047C154.903 7.18236 154.835 7.59356 154.835 8.22408V13.8576C154.835 14.4607 154.903 14.8582 155.053 15.0501C155.203 15.242 155.529 15.3242 156.06 15.3242C156.564 15.3242 156.877 15.2282 157.04 15.0501C157.19 14.8582 157.271 14.6114 157.271 13.9261L157.258 13.0352H160.048V13.2271C160.048 14.5018 160.007 14.913 159.816 15.4338C159.599 15.9684 159.177 16.4482 158.523 16.8456ZM166.458 7.85399C166.458 7.4702 166.268 7.01788 165.9 6.89452C165.533 6.77116 165.056 6.71633 164.076 6.71633V10.2116C165.029 10.2116 165.506 10.1567 165.873 10.0608C166.254 9.96484 166.445 9.0739 166.445 8.52563V7.85399H166.458ZM166.458 13.3778C166.458 12.7199 166.322 12.3224 166.05 12.1579C165.778 12.0072 165.247 11.9249 164.09 11.9249V17.2569H161.354L161.395 4.86591H163.859C165.506 4.86591 166.622 4.92074 167.207 5.0441C167.792 5.16746 168.268 5.4553 168.636 5.93504C169.003 6.41478 169.194 7.18236 169.194 8.23778C169.194 9.19726 169.031 10.0608 168.786 10.3897C168.527 10.7187 168.023 10.9243 167.275 10.9928C167.955 11.1573 168.418 11.3629 168.65 11.6234C168.881 11.8838 169.031 12.1305 169.085 12.3498C169.139 12.5691 169.208 12.9392 169.208 13.9398V17.1883L166.485 17.2569V13.3778H166.458ZM176.203 8.04589C176.203 7.4702 176.108 7.11383 175.931 6.94934C175.754 6.78486 175.373 6.71633 174.815 6.71633C174.339 6.71633 173.971 6.78486 173.713 6.90822C173.454 7.03159 173.331 7.41538 173.331 8.04589V13.7753C173.331 14.4881 173.413 14.9267 173.576 15.0912C173.74 15.2557 174.134 15.3379 174.733 15.3379C175.359 15.3379 175.754 15.242 175.931 15.0501C176.108 14.8582 176.19 14.4058 176.19 13.6794V8.04589H176.203ZM178.34 16.1192C178 16.5441 177.523 16.8731 176.938 17.1061C176.353 17.3391 175.659 17.4487 174.869 17.4487C174.121 17.4487 173.454 17.3391 172.855 17.1198C172.256 16.9005 171.78 16.5852 171.426 16.1466C171.059 15.7217 170.854 15.242 170.786 14.7348C170.718 14.2277 170.677 13.3367 170.677 12.062V9.95113C170.677 8.71752 170.705 7.84029 170.773 7.31943C170.841 6.79857 171.045 6.33254 171.399 5.90763C171.753 5.48272 172.215 5.15375 172.801 4.92074C173.386 4.68772 174.08 4.57807 174.869 4.57807C175.618 4.57807 176.285 4.68772 176.884 4.90703C177.483 5.12634 177.959 5.4416 178.313 5.88021C178.667 6.30513 178.884 6.78486 178.952 7.29201C179.021 7.79917 179.061 8.69011 179.061 9.95113V12.0757C179.061 13.3093 179.034 14.1865 178.966 14.7074C178.898 15.2282 178.694 15.6943 178.34 16.1192ZM188.493 17.1883C188.099 15.2968 187.173 10.6502 186.86 8.22408C186.724 9.26579 185.635 13.9124 185.132 17.1883H182.137L179.81 4.8522H182.437L183.185 9.15614L183.73 14.2688C183.852 12.1168 184.941 8.33373 185.458 4.8522H188.507C188.548 5.20858 189.065 6.56555 189.269 8.92312L190.031 14.1865C190.235 11.1985 190.93 7.70322 191.392 4.8522H193.829L191.324 17.1883H188.493ZM199.994 8.41597C199.994 7.8677 199.953 7.51132 199.871 7.34684C199.79 7.19607 199.586 7.07271 199.273 7.00417C198.96 6.93564 198.388 6.89452 197.531 6.89452V15.1323C198.66 15.1323 199.341 15.0364 199.613 14.8582C199.871 14.68 200.008 14.1728 200.008 13.3504V8.41597H199.994ZM202.485 15.7491C202.376 16.1192 202.172 16.4207 201.886 16.6263C201.6 16.8319 201.26 16.9827 200.838 17.065C200.429 17.1472 199.994 17.1883 199.15 17.1883H194.754V4.8522H197.367C199.055 4.8522 200.008 4.92074 200.593 5.07151C201.192 5.20858 201.641 5.4416 201.954 5.77056C202.267 6.09952 202.457 6.4559 202.539 6.8534C202.621 7.25089 202.648 8.03218 202.648 9.19726V13.5149C202.662 14.6251 202.607 15.3653 202.485 15.7491Z" fill="#456372"/>
<rect x="220.323" y="5.75696" width="23.0474" height="17.2333" rx="1.58504" fill="#456372"/>
<path d="M242.191 5.62756H221.477C220.835 5.62756 220.336 10.5935 220.336 11.2352L231.68 22.9904H242.191C242.835 22.9886 243.356 22.4673 243.358 21.8236V6.79404C243.356 6.1505 242.835 5.62932 242.191 5.62756Z" fill="url(#paint0_linear_806_6119)"/>
<path d="M225.586 8.64302H232.171V0.000366211H226.572L225.586 8.64302Z" fill="#456372"/>
<path fill-rule="evenodd" clip-rule="evenodd" d="M232.171 8.64302H238.756L237.77 0.000366211H232.171V8.64302ZM243.396 1.63869L243.405 1.66736C243.402 1.6577 243.398 1.64816 243.396 1.63869ZM243.405 1.66736L243.429 1.73869C243.424 1.7185 243.417 1.69914 243.41 1.68029C243.408 1.67595 243.407 1.67164 243.405 1.66736Z" fill="#738C98"/>
<path d="M243.379 1.6679L243.37 1.63844C243.162 0.682459 242.316 0.000740959 241.337 0.00012207H237.77L238.755 8.64303H245.34L243.379 1.6679Z" fill="#456372"/>
<path d="M221.021 1.63867L220.988 1.73867C220.996 1.70338 221.012 1.6706 221.021 1.63867Z" fill="#7BABF7"/>
<path d="M220.962 1.6679L220.971 1.63844C221.179 0.682459 222.025 0.000740959 223.004 0.00012207H226.572L225.585 8.64303H219L220.962 1.6679Z" fill="#738C98"/>
<path d="M225.597 8.64075C225.597 10.4581 224.124 11.9314 222.306 11.9314C220.489 11.9314 219.016 10.4581 219.016 8.64075H225.597Z" fill="#91A6B0"/>
<path d="M232.178 8.64075C232.178 10.4581 230.705 11.9314 228.888 11.9314C227.07 11.9314 225.597 10.4581 225.597 8.64075H232.178Z" fill="#3A5563"/>
<path d="M238.759 8.64075C238.759 10.4581 237.286 11.9314 235.469 11.9314C233.651 11.9314 232.178 10.4581 232.178 8.64075H238.759Z" fill="#91A6B0"/>
<path d="M245.34 8.64075C245.34 10.4581 243.867 11.9314 242.049 11.9314C240.232 11.9314 238.759 10.4581 238.759 8.64075H245.34Z" fill="#3A5563"/>
<path d="M242.049 17.556C242.038 17.3993 242.018 17.2562 241.991 17.0735H238.401C238.401 17.5756 238.401 18.1234 238.399 18.6257H240.479C240.39 19.0985 240.116 19.5162 239.718 19.7865C239.718 19.7865 239.718 19.7778 239.716 19.7776C239.462 19.9447 239.175 20.0566 238.875 20.1061C238.573 20.1612 238.264 20.1598 237.964 20.1021C237.658 20.0389 237.369 19.9136 237.114 19.734C236.738 19.4672 236.448 19.0964 236.279 18.667C236.267 18.6336 236.255 18.6 236.242 18.5658V18.5621L236.246 18.5596C236.082 18.0794 236.082 17.5587 236.244 17.0782C236.359 16.7412 236.548 16.4341 236.797 16.1796C237.381 15.5756 238.253 15.3484 239.057 15.5909C239.366 15.6855 239.648 15.8514 239.88 16.0751L240.582 15.3736C240.705 15.2485 240.834 15.1275 240.953 14.9983C240.597 14.6664 240.18 14.4079 239.724 14.2373C238.895 13.9366 237.988 13.9287 237.154 14.2148C237.125 14.2247 237.096 14.235 237.067 14.2457C236.167 14.5841 235.427 15.2476 234.992 16.1053C234.839 16.4089 234.727 16.7319 234.66 17.0654C234.262 19.0402 235.467 20.984 237.413 21.5065C238.049 21.6768 238.725 21.6726 239.366 21.527C239.948 21.3956 240.487 21.1158 240.929 20.7148C241.39 20.2903 241.721 19.7246 241.894 19.1238C242.039 18.6146 242.092 18.0837 242.049 17.556Z" fill="white"/>
<path d="M261.24 8.19V10.65H267.12C266.94 12.03 266.48 13.04 265.78 13.75C264.92 14.61 263.58 15.55 261.24 15.55C257.62 15.55 254.79 12.63 254.79 9.01C254.79 5.39 257.62 2.47 261.24 2.47C263.19 2.47 264.62 3.24 265.67 4.23L267.4 2.5C265.94 1.08 263.98 0 261.24 0C256.28 0 252.11 4.04 252.11 9C252.11 13.96 256.28 18 261.24 18C263.92 18 265.94 17.12 267.52 15.48C269.14 13.86 269.65 11.57 269.65 9.73C269.65 9.16 269.61 8.63 269.52 8.19H261.24Z" fill="#456372"/>
<path fill-rule="evenodd" clip-rule="evenodd" d="M271.17 11.9999C271.17 8.62994 273.79 6.18994 277 6.18994C280.21 6.18994 282.83 8.62994 282.83 11.9999C282.83 15.3499 280.21 17.8099 277 17.8099C273.79 17.8099 271.17 15.3399 271.17 11.9999ZM273.72 11.9999C273.72 14.0699 275.24 15.5199 277 15.5199C278.76 15.5199 280.28 14.0699 280.28 11.9999C280.28 9.90994 278.76 8.47994 277 8.47994C275.24 8.47994 273.72 9.90994 273.72 11.9999Z" fill="#456372"/>
<path fill-rule="evenodd" clip-rule="evenodd" d="M305.49 7.48994H305.58V6.48994H308V16.9399C308 21.2299 305.47 22.9899 302.48 22.9899C299.66 22.9899 297.97 21.0999 297.33 19.5599L299.55 18.6399C299.95 19.5899 300.92 20.7099 302.48 20.7099C304.39 20.7099 305.58 19.5199 305.58 17.2999V16.4899H305.49C304.92 17.1899 303.82 17.8099 302.43 17.8099C299.53 17.8099 297 15.2599 297 11.9999C297 8.71994 299.53 6.18994 302.43 6.18994C303.82 6.18994 304.92 6.80994 305.49 7.48994ZM299.55 11.9999C299.55 14.0199 300.89 15.5199 302.65 15.5199C304.39 15.5199 305.76 14.0499 305.75 12.0199C305.75 9.97994 304.39 8.47994 302.65 8.47994C300.89 8.47994 299.55 9.94994 299.55 11.9999Z" fill="#456372"/>
<path fill-rule="evenodd" clip-rule="evenodd" d="M284.17 11.9999C284.17 8.62994 286.79 6.18994 290 6.18994C293.21 6.18994 295.83 8.62994 295.83 11.9999C295.83 15.3499 293.21 17.8099 290 17.8099C286.79 17.8099 284.17 15.3399 284.17 11.9999ZM286.72 11.9999C286.72 14.0699 288.24 15.5199 290 15.5199C291.76 15.5199 293.28 14.0699 293.28 11.9999C293.28 9.90994 291.76 8.47994 290 8.47994C288.24 8.47994 286.72 9.90994 286.72 11.9999Z" fill="#456372"/>
<path d="M310 0.23999H312.51V17.81H310V0.23999Z" fill="#456372"/>
<path fill-rule="evenodd" clip-rule="evenodd" d="M317.44 13.7599C318.04 14.9299 318.96 15.5199 320.26 15.5199C321.56 15.5199 322.46 14.8799 323.12 13.9199L325.1 15.2399C324.46 16.1799 322.92 17.8099 320.26 17.8099C316.96 17.8099 314.5 15.2599 314.5 11.9999C314.5 8.53994 316.99 6.18994 319.98 6.18994C322.99 6.18994 324.47 8.58994 324.95 9.88994L325.21 10.5499L317.44 13.7599ZM322.28 9.64994C321.99 8.89994 321.11 8.36994 320.08 8.36994C318.76 8.36994 317.03 9.37994 317.03 11.8199L322.28 9.64994Z" fill="#456372"/>
<path opacity="0.5" d="M345.408 18V5.238H343.05L338.514 15.624L334.014 5.238H331.62V18H333.366V8.064L337.686 18H339.306L343.662 8.064V18H345.408ZM349.851 21.618L355.485 9.342H353.667L351.075 15.318L348.375 9.342H346.431L350.157 17.046L347.997 21.618H349.851ZM360.227 5.238V18H364.691C367.031 18 368.633 16.542 368.633 14.526C368.633 13.104 367.787 11.808 366.329 11.448C367.445 11.034 368.237 10.062 368.237 8.694C368.237 6.678 366.815 5.238 364.385 5.238H360.227ZM361.991 10.818V6.786H364.115C365.573 6.786 366.455 7.578 366.455 8.784C366.455 9.972 365.609 10.818 364.187 10.818H361.991ZM361.991 16.452V12.33H364.511C366.059 12.33 366.833 13.194 366.833 14.418C366.833 15.66 365.861 16.452 364.439 16.452H361.991ZM375.447 16.956C375.447 17.316 375.483 17.802 375.519 18H377.139C377.103 17.694 377.049 17.082 377.049 16.398V9.342H375.357V14.562C375.357 15.876 374.673 16.776 373.305 16.776C371.883 16.776 371.343 15.732 371.343 14.544V9.342H369.651V14.796C369.651 16.758 370.875 18.27 372.891 18.27C373.899 18.27 374.979 17.856 375.447 16.956ZM378.344 15.75C378.488 16.74 379.496 18.27 381.872 18.27C384.014 18.27 385.04 16.812 385.04 15.588C385.04 14.31 384.212 13.356 382.646 13.014L381.242 12.708C380.576 12.564 380.252 12.186 380.252 11.664C380.252 11.07 380.828 10.512 381.692 10.512C383.06 10.512 383.42 11.502 383.492 11.952L384.986 11.394C384.806 10.62 384.068 9.072 381.692 9.072C380 9.072 378.614 10.332 378.614 11.808C378.614 13.032 379.424 13.95 380.774 14.238L382.25 14.562C382.97 14.724 383.366 15.138 383.366 15.678C383.366 16.29 382.844 16.83 381.89 16.83C380.666 16.83 379.982 16.11 379.874 15.21L378.344 15.75ZM388.184 18V9.342H386.51V18H388.184ZM386.132 6.066C386.132 6.732 386.672 7.272 387.338 7.272C388.022 7.272 388.562 6.732 388.562 6.066C388.562 5.382 388.022 4.842 387.338 4.842C386.672 4.842 386.132 5.382 386.132 6.066ZM391.972 12.996C391.972 11.682 392.656 10.62 393.988 10.62C395.5 10.62 396.004 11.592 396.004 12.798V18H397.696V12.51C397.696 10.584 396.67 9.09 394.6 9.09C393.592 9.09 392.566 9.504 391.936 10.584V9.342H390.28V18H391.972V12.996ZM400.703 12.78C400.775 11.664 401.639 10.566 403.061 10.566C404.591 10.566 405.401 11.538 405.437 12.78H400.703ZM405.689 15.03C405.365 16.002 404.663 16.776 403.259 16.776C401.801 16.776 400.685 15.696 400.649 14.148H407.165C407.183 14.04 407.201 13.824 407.201 13.608C407.201 10.908 405.707 9.072 403.043 9.072C400.865 9.072 398.903 10.926 398.903 13.644C398.903 16.578 400.937 18.27 403.259 18.27C405.275 18.27 406.661 17.064 407.147 15.534L405.689 15.03ZM407.768 15.75C407.912 16.74 408.92 18.27 411.296 18.27C413.438 18.27 414.464 16.812 414.464 15.588C414.464 14.31 413.636 13.356 412.07 13.014L410.666 12.708C410 12.564 409.676 12.186 409.676 11.664C409.676 11.07 410.252 10.512 411.116 10.512C412.484 10.512 412.844 11.502 412.916 11.952L414.41 11.394C414.23 10.62 413.492 9.072 411.116 9.072C409.424 9.072 408.038 10.332 408.038 11.808C408.038 13.032 408.848 13.95 410.198 14.238L411.674 14.562C412.394 14.724 412.79 15.138 412.79 15.678C412.79 16.29 412.268 16.83 411.314 16.83C410.09 16.83 409.406 16.11 409.298 15.21L407.768 15.75ZM415.124 15.75C415.268 16.74 416.276 18.27 418.652 18.27C420.794 18.27 421.82 16.812 421.82 15.588C421.82 14.31 420.992 13.356 419.426 13.014L418.022 12.708C417.356 12.564 417.032 12.186 417.032 11.664C417.032 11.07 417.608 10.512 418.472 10.512C419.84 10.512 420.2 11.502 420.272 11.952L421.766 11.394C421.586 10.62 420.848 9.072 418.472 9.072C416.78 9.072 415.394 10.332 415.394 11.808C415.394 13.032 416.204 13.95 417.554 14.238L419.03 14.562C419.75 14.724 420.146 15.138 420.146 15.678C420.146 16.29 419.624 16.83 418.67 16.83C417.446 16.83 416.762 16.11 416.654 15.21L415.124 15.75Z" fill="#456372"/>
<defs>
<linearGradient id="paint0_linear_806_6119" x1="221.027" y1="22.7297" x2="243.358" y2="22.7297" gradientUnits="userSpaceOnUse">
<stop stop-color="#456372"/>
<stop offset="1" stop-color="#708895"/>
</linearGradient>
</defs>
</svg>
