<svg width="248" height="48" viewBox="0 0 248 48" fill="none" xmlns="http://www.w3.org/2000/svg">
<path d="M24.9139 5.1875L30.3904 17.4727L43.7693 18.8867C44.6287 18.9766 44.9764 20.0469 44.3318 20.625L34.3396 29.6289L37.1326 42.7891C37.3123 43.6367 36.4021 44.2969 35.6521 43.8633L23.9998 37.1406L12.3474 43.8633C11.5974 44.2969 10.6912 43.6367 10.867 42.7891L13.6599 29.6289L3.66776 20.6211C3.02323 20.043 3.37089 18.9766 4.23026 18.8867L17.6092 17.4727L23.0857 5.1836C23.4373 4.39453 24.5623 4.39453 24.9139 5.1875Z" fill="url(#paint0_linear_324_903)"/>
<path d="M74.9139 5.1875L80.3904 17.4727L93.7693 18.8867C94.6287 18.9766 94.9764 20.0469 94.3318 20.625L84.3396 29.6289L87.1326 42.7891C87.3123 43.6367 86.4021 44.2969 85.6521 43.8633L73.9998 37.1406L62.3474 43.8633C61.5974 44.2969 60.6912 43.6367 60.867 42.7891L63.6599 29.6289L53.6678 20.6211C53.0232 20.043 53.3709 18.9766 54.2303 18.8867L67.6092 17.4727L73.0857 5.1836C73.4373 4.39453 74.5623 4.39453 74.9139 5.1875Z" fill="url(#paint1_linear_324_903)"/>
<path d="M124.914 5.1875L130.39 17.4727L143.769 18.8867C144.629 18.9766 144.976 20.0469 144.332 20.625L134.34 29.6289L137.133 42.7891C137.312 43.6367 136.402 44.2969 135.652 43.8633L124 37.1406L112.347 43.8633C111.597 44.2969 110.691 43.6367 110.867 42.7891L113.66 29.6289L103.668 20.6211C103.023 20.043 103.371 18.9766 104.23 18.8867L117.609 17.4727L123.086 5.1836C123.437 4.39453 124.562 4.39453 124.914 5.1875Z" fill="url(#paint2_linear_324_903)"/>
<path d="M174.914 5.1875L180.39 17.4727L193.769 18.8867C194.629 18.9766 194.976 20.0469 194.332 20.625L184.34 29.6289L187.133 42.7891C187.312 43.6367 186.402 44.2969 185.652 43.8633L174 37.1406L162.347 43.8633C161.597 44.2969 160.691 43.6367 160.867 42.7891L163.66 29.6289L153.668 20.6211C153.023 20.043 153.371 18.9766 154.23 18.8867L167.609 17.4727L173.086 5.1836C173.437 4.39453 174.562 4.39453 174.914 5.1875Z" fill="url(#paint3_linear_324_903)"/>
<path d="M224.914 5.1875L230.39 17.4727L243.769 18.8867C244.629 18.9766 244.976 20.0469 244.332 20.625L234.34 29.6289L237.133 42.7891C237.312 43.6367 236.402 44.2969 235.652 43.8633L224 37.1406L212.347 43.8633C211.597 44.2969 210.691 43.6367 210.867 42.7891L213.66 29.6289L203.668 20.6211C203.023 20.043 203.371 18.9766 204.23 18.8867L217.609 17.4727L223.086 5.1836C223.437 4.39453 224.562 4.39453 224.914 5.1875Z" fill="url(#paint4_linear_324_903)"/>
<path d="M243.77 18.8867L230.391 17.4727L224.914 5.1875C224.738 4.78906 224.367 4.59375 224 4.59375V37.1406L235.652 43.8633C236.402 44.2969 237.313 43.6367 237.133 42.7891L234.34 29.6289L244.332 20.625C244.977 20.0469 244.629 18.9766 243.77 18.8867Z" fill="url(#paint5_radial_324_903)"/>
<defs>
<linearGradient id="paint0_linear_324_903" x1="9.00879" y1="6.36" x2="38.0918" y2="45.266" gradientUnits="userSpaceOnUse">
<stop stop-color="#FFDA1C"/>
<stop offset="1" stop-color="#FEB705"/>
</linearGradient>
<linearGradient id="paint1_linear_324_903" x1="59.0088" y1="6.36" x2="88.0918" y2="45.266" gradientUnits="userSpaceOnUse">
<stop stop-color="#FFDA1C"/>
<stop offset="1" stop-color="#FEB705"/>
</linearGradient>
<linearGradient id="paint2_linear_324_903" x1="109.009" y1="6.36" x2="138.092" y2="45.266" gradientUnits="userSpaceOnUse">
<stop stop-color="#FFDA1C"/>
<stop offset="1" stop-color="#FEB705"/>
</linearGradient>
<linearGradient id="paint3_linear_324_903" x1="159.009" y1="6.36" x2="188.092" y2="45.266" gradientUnits="userSpaceOnUse">
<stop stop-color="#FFDA1C"/>
<stop offset="1" stop-color="#FEB705"/>
</linearGradient>
<linearGradient id="paint4_linear_324_903" x1="209.009" y1="6.36" x2="238.092" y2="45.266" gradientUnits="userSpaceOnUse">
<stop stop-color="#FFDA1C"/>
<stop offset="1" stop-color="#FEB705"/>
</linearGradient>
<radialGradient id="paint5_radial_324_903" cx="0" cy="0" r="1" gradientUnits="userSpaceOnUse" gradientTransform="translate(220.375 20.637) scale(23.105)">
<stop stop-color="#FAFAFB"/>
<stop offset="0.293" stop-color="#F6F7F8"/>
<stop offset="0.566" stop-color="#EBECEE"/>
<stop offset="0.832" stop-color="#D8DCDF"/>
<stop offset="1" stop-color="#C8CDD1"/>
</radialGradient>
</defs>
</svg>
