<svg width="24" height="24" viewBox="0 0 24 24" fill="none" xmlns="http://www.w3.org/2000/svg">
<path d="M11.9999 2.3999C6.70744 2.3999 2.3999 6.70744 2.3999 11.9999C2.3999 17.2924 6.70744 21.5999 11.9999 21.5999C17.2924 21.5999 21.5999 17.2924 21.5999 11.9999C21.5999 6.70744 17.2924 2.3999 11.9999 2.3999ZM11.9999 3.9999C12.3144 3.9999 12.6403 4.13017 13.0124 4.47646C13.3845 4.82276 13.7697 5.38125 14.0999 6.10771C14.3453 6.6475 14.5455 7.3015 14.7187 7.9999H9.28115C9.45433 7.3015 9.65455 6.6475 9.8999 6.10771C10.2301 5.38125 10.6153 4.82276 10.9874 4.47646C11.3595 4.13017 11.6854 3.9999 11.9999 3.9999ZM8.87021 4.63428C8.71965 4.891 8.57491 5.15802 8.44365 5.44678C8.10159 6.19931 7.82707 7.06234 7.62021 7.9999H5.0749C5.93852 6.50481 7.26663 5.31432 8.87021 4.63428ZM15.1296 4.63428C16.7332 5.31432 18.0613 6.50481 18.9249 7.9999H16.3796C16.1727 7.06234 15.8982 6.19931 15.5562 5.44678C15.4249 5.15802 15.2802 4.891 15.1296 4.63428ZM4.36553 9.5999H7.34834C7.2543 10.368 7.1999 11.1694 7.1999 11.9999C7.1999 12.8304 7.2543 13.6318 7.34834 14.3999H4.36553C4.12875 13.6427 3.9999 12.8366 3.9999 11.9999C3.9999 11.1632 4.12875 10.3572 4.36553 9.5999ZM8.97803 9.5999H15.0218C15.1261 10.3632 15.1999 11.1579 15.1999 11.9999C15.1999 12.8419 15.1261 13.6366 15.0218 14.3999H8.97803C8.87369 13.6366 8.7999 12.8419 8.7999 11.9999C8.7999 11.1579 8.87369 10.3632 8.97803 9.5999ZM16.6515 9.5999H19.6343C19.8711 10.3572 19.9999 11.1632 19.9999 11.9999C19.9999 12.8366 19.8711 13.6427 19.6343 14.3999H16.6515C16.7455 13.6318 16.7999 12.8304 16.7999 11.9999C16.7999 11.1694 16.7455 10.368 16.6515 9.5999ZM5.0749 15.9999H7.62021C7.82707 16.9375 8.10159 17.8005 8.44365 18.553C8.57491 18.8418 8.71965 19.1088 8.87021 19.3655C7.26663 18.6855 5.93852 17.495 5.0749 15.9999ZM9.28115 15.9999H14.7187C14.5455 16.6983 14.3453 17.3523 14.0999 17.8921C13.7697 18.6186 13.3845 19.177 13.0124 19.5233C12.6403 19.8696 12.3144 19.9999 11.9999 19.9999C11.6854 19.9999 11.3595 19.8696 10.9874 19.5233C10.6153 19.177 10.2301 18.6186 9.8999 17.8921C9.65455 17.3523 9.45433 16.6983 9.28115 15.9999ZM16.3796 15.9999H18.9249C18.0613 17.495 16.7332 18.6855 15.1296 19.3655C15.2802 19.1088 15.4249 18.8418 15.5562 18.553C15.8982 17.8005 16.1727 16.9375 16.3796 15.9999Z" fill="#1F2937"/>
</svg>
