<svg xmlns="http://www.w3.org/2000/svg" xmlns:xlink="http://www.w3.org/1999/xlink" width="161" height="129" viewBox="0 0 161 129">
  <defs>
    <linearGradient id="wuilt-logo-w-colored-b" x1="51.784%" x2="50%" y1="100%" y2="-24.113%">
      <stop offset="0%" stop-color="#FF1C85"/>
      <stop offset="100%" stop-color="#FDAE05"/>
    </linearGradient>
    <path id="wuilt-logo-w-colored-a" d="M37.5806676,0.588933482 C40.9888891,-0.406481327 45.5520143,-0.0308530971 47.9936315,0.90404383 C49.1087832,1.32975582 49.7887537,1.87441676 50.2427648,2.50255063 C50.9227353,3.44579485 51.1717091,4.69580213 50.9917784,6.25465928 C50.6758537,8.98422442 47.1379148,16.3507114 43.5518549,23.9989195 C38.2857447,35.2281167 37.1078266,37.4151078 33.0049891,48.7444725 C28.9021516,60.0759241 25.849607,70.4140477 23.8536321,79.7484092 C21.8513804,89.0869444 21.0626146,96.6955029 21.4873347,102.567824 C21.684003,105.282782 23.3745144,110.36837 26.851779,111.38048 C30.3562424,112.400937 35.3419955,108.98272 38.8422745,102.567824 L38.674,102.869 L46.0465915,114.918052 C40.203382,123.12917 31.1860643,127.493545 23.1215917,125.935242 L22.7489415,125.858861 C16.3446653,124.471124 12.2188135,119.663082 12.0200528,119.406403 C7.42763658,113.486085 7.01337762,106.221852 6.33968375,106.344975 C5.85010498,106.434708 6.45894012,110.259856 5.92960923,110.382978 C5.13875121,110.566619 1.588259,102.559477 0.418709712,93.0477354 C-0.384701606,86.5222383 0.121614902,80.9024226 0.659314665,75.1845263 C1.57361348,65.4599288 3.36664343,58.2374326 4.91906843,52.5237099 C5.18268776,51.5554238 7.16192502,44.4414425 9.7102453,37.8804694 C15.608205,22.7009153 27.2451158,3.60439344 37.5806676,0.588933482 Z"/>
    <linearGradient id="wuilt-logo-w-colored-c" x1="45.215%" x2="54.787%" y1="75.484%" y2="15.613%">
      <stop offset="0%" stop-color="#FFF" stop-opacity=".649"/>
      <stop offset="100%" stop-color="#D8D8D8" stop-opacity="0"/>
    </linearGradient>
    <linearGradient id="wuilt-logo-w-colored-f" x1="15.515%" x2="81.877%" y1="80.326%" y2="57.615%">
      <stop offset="0%" stop-color="#FF2C77"/>
      <stop offset="100%" stop-color="#6723A5"/>
    </linearGradient>
    <path id="wuilt-logo-w-colored-e" d="M16.1650992,39.1231175 C16.1650992,35.5567362 16.529145,32.3555489 17.2697898,29.5237294 C18.0041579,26.6898231 19.0544509,24.4381406 20.424853,22.7561608 C21.7910707,21.0804415 23.3142046,20.2394517 25.0005315,20.2394517 C26.6826739,20.2394517 27.5739584,21.2369533 27.6827537,23.2277829 C27.7873645,25.224873 27.3668289,27.743669 26.4211468,30.782084 C25.4733725,33.8267595 24.1573681,37.0780305 22.4773178,40.5400707 C20.7888987,44.0021109 19.1088485,47.2032981 17.4267061,50.1394588 C16.5835426,46.3623082 16.1650992,42.6936725 16.1650992,39.1231175 Z M27.2099126,0.0953444444 C33.9405746,0.0953444444 38.7275671,2.35120065 41.5687977,6.86082623 C43.152606,9.37753537 45.5900388,14.3754776 44.8807772,23.5428933 C43.8765131,36.5250223 37.5496489,46.1118894 34.1205053,51.1828705 C29.894227,57.4287332 25.458727,61.9529666 22.1593008,64.9329505 C22.5735598,66.1203531 23.655236,68.6850592 26.2621383,70.7551881 C29.6055011,73.4075408 33.2898952,73.4701455 34.5201187,73.4743191 C39.6941713,73.4972742 43.3890265,70.6007632 47.4060831,67.4517465 C51.0005119,64.632448 53.1931552,61.9654875 55.7686743,58.7956026 C58.1014963,55.9220467 61.04943,51.921606 63.9910871,46.7754993 C63.8812594,46.6815079 63.7691974,46.5847596 63.6550383,46.4852368 L77.507674,49.7463444 L77.0695354,49.8243484 C74.274774,55.3935312 71.11009,60.3465171 67.5648099,64.6868551 L66.970404,65.4045727 C63.1834913,69.9183719 59.2396623,73.6976092 55.1368248,76.7360242 C52.1993522,78.9125812 48.5149581,81.6024966 42.9873208,83.6601046 C39.8573642,84.8266389 36.5181859,86.0349098 31.9425074,86.0223888 C29.990469,86.0161283 25.2620586,85.9430895 20.1298504,83.1217042 C15.5897395,80.6279501 12.9849294,77.2180805 11.746337,75.3190711 C11.7378005,75.3311415 11.7292571,75.3432037 11.720707,75.3552576 L4.14605539,62.3451318 C1.42661384,56.6488485 0.0696740237,50.2728804 0.0696740237,43.2153784 C0.0696740237,35.8718465 1.17436459,29.0020235 3.38374571,22.5996491 C5.59312684,16.2014482 8.74819004,10.8508328 12.8510275,6.54571588 C16.953865,2.24894629 21.736673,0.0953444444 27.2099126,0.0953444444 Z"/>
    <linearGradient id="wuilt-logo-w-colored-g" x1="53.271%" x2="58.607%" y1="0%" y2="52.718%">
      <stop offset="0%" stop-color="#FFF" stop-opacity=".668"/>
      <stop offset="100%" stop-color="#D8D8D8" stop-opacity="0"/>
    </linearGradient>
    <linearGradient id="wuilt-logo-w-colored-j" x1="60.143%" x2="31.009%" y1="8.12%" y2="96.136%">
      <stop offset="0%" stop-color="#00F490"/>
      <stop offset="100%" stop-color="#6723A5"/>
    </linearGradient>
    <path id="wuilt-logo-w-colored-i" d="M25.4608236,59.795636 C23.9858106,64.5181175 22.6216851,67.930074 21.3579861,70.0252447 C18.4100524,66.8783149 16.6253913,62.7380571 15.9935418,57.5919503 C15.3637844,52.4541909 15.4663031,47.4708564 16.3094665,42.6419468 C17.1463533,37.8172109 18.6213663,33.7270368 20.7261366,30.367251 C22.8267224,27.0116388 25.2495097,25.6468562 27.9840372,26.2749901 C29.4548658,26.6986153 30.1934184,28.7437023 30.1934184,32.412338 C30.1934184,36.0872342 29.7707905,40.3902642 28.9318115,45.3172545 C28.0886481,50.2505053 26.9295599,55.0752412 25.4608236,59.795636 Z M27.1973637,0.93886601 C31.5052384,-0.213060561 35.5599549,-0.162976797 39.3447754,1.09537777 C46.4938808,3.40549138 50.0736641,10.8533645 50.0736641,23.4431706 C50.0736641,36.0329768 45.4456801,52.6107027 36.1897122,73.1721746 C38.9221476,71.7072245 41.713165,69.5536226 44.5523035,66.7197163 C47.3935341,63.8878968 50.0213586,60.7952244 52.4420537,57.4354386 C54.5593773,54.4971911 56.7520206,51.6528507 59.0681048,47.5209401 C59.3714763,46.978366 60.612161,44.7475517 62.4428508,41.8739958 C64.7861338,38.1970128 65.7318159,37.1765561 67.1147713,36.5045989 C68.5144645,35.8263813 71.0711536,35.1690319 72.4331869,36.3334794 C73.0671286,36.8781403 73.9228454,38.2700516 72.4792157,43.2721675 C70.9267907,48.6519985 68.0897444,52.3185474 63.6437834,58.6937932 C60.275314,63.5227027 56.7018074,67.8758165 52.9148947,71.7573083 C49.127982,75.6408868 45.2866716,78.8379004 41.3972403,81.3566963 C37.5015323,83.8734055 33.6644063,85.4468704 29.8795858,86.0770911 C29.8359703,86.1640047 29.7922647,86.2507682 29.7484689,86.3373817 L16.7110077,83.1836063 L16.8011375,83.028242 C14.1575897,80.7658723 10.2195339,76.9062185 6.90041444,71.2057217 L6.59111867,70.6658996 C6.00529791,69.6245746 -3.42850843,52.2830714 2.42551467,33.0425587 C5.14330452,24.1067805 10.6939562,16.2540637 9.68341536,15.5737592 C9.12270121,15.198131 7.01583871,17.6772773 6.77104933,17.4602476 C6.43629461,17.1639187 9.64784767,11.9322522 14.8888512,7.54783603 C17.3325606,5.502749 21.2742974,2.52067822 27.1973637,0.93886601 Z"/>
    <linearGradient id="wuilt-logo-w-colored-k" x1="52.605%" x2="41.554%" y1="0%" y2="64.324%">
      <stop offset="0%" stop-color="#FFF" stop-opacity=".69"/>
      <stop offset="100%" stop-color="#D8D8D8" stop-opacity="0"/>
    </linearGradient>
    <linearGradient id="wuilt-logo-w-colored-m" x1="39.293%" x2="60.707%" y1="0%" y2="86.089%">
      <stop offset="0%" stop-opacity="0"/>
      <stop offset="100%"/>
    </linearGradient>
    <linearGradient id="wuilt-logo-w-colored-n" x1="0%" x2="100%" y1="34.928%" y2="60.879%">
      <stop offset="0%" stop-opacity="0"/>
      <stop offset="100%"/>
    </linearGradient>
  </defs>
  <g fill="none" fill-rule="evenodd">
    <g transform="translate(.077 .043)">
      <mask id="wuilt-logo-w-colored-d" fill="#fff">
        <use xlink:href="#wuilt-logo-w-colored-a"/>
      </mask>
      <use fill="url(#wuilt-logo-w-colored-b)" xlink:href="#wuilt-logo-w-colored-a"/>
      <path fill="url(#wuilt-logo-w-colored-c)" d="M11.8830756,73.9823821 C15.9836823,22.1732752 52.681434,-2.28573553 41.2822069,-6.50565336 C31.892044,-9.98182901 17.0167588,13.0737079 8.85560692,34.3987394 C-0.918342248,59.9379985 -1.77429721,83.1501941 -1.63535189,85.1032704 C-0.759293162,97.4175361 2.66582937,123.200081 16.6537808,124.064615 C30.6417322,124.929149 7.78246888,125.791489 11.8830756,73.9823821 Z" mask="url(#wuilt-logo-w-colored-d)" opacity=".4"/>
      <g transform="translate(33.79 40.33)">
        <mask id="wuilt-logo-w-colored-h" fill="#fff">
          <use xlink:href="#wuilt-logo-w-colored-e"/>
        </mask>
        <use fill="url(#wuilt-logo-w-colored-f)" xlink:href="#wuilt-logo-w-colored-e"/>
        <path fill="url(#wuilt-logo-w-colored-g)" d="M32.3549989,45.3597674 C35.7922658,37.6560369 37.7863951,30.4323893 38.329264,23.6904248 C38.8734866,16.9500607 37.9217739,11.2818817 35.4781871,6.67628628 C33.0346003,2.07709195 28.9136706,-0.225705775 23.1208131,-0.225705775 C18.4109857,-0.225705775 14.2954711,1.97147371 10.7647929,6.35623101 C7.23411457,10.7441889 4.51841647,16.2011313 2.61634477,22.7286587 C0.715626861,29.2593867 -0.234732095,36.266997 -0.234732095,43.7546902 C-0.234732095,47.533747 5.86024309,66.7929593 13.6503432,67.1915132 C21.3084747,67.5833154 30.6490337,49.1795209 32.3549989,45.3597674 Z" mask="url(#wuilt-logo-w-colored-h)" opacity=".5"/>
      </g>
      <g transform="translate(80.968 4.045)">
        <mask id="wuilt-logo-w-colored-l" fill="#fff">
          <use xlink:href="#wuilt-logo-w-colored-i"/>
        </mask>
        <use fill="url(#wuilt-logo-w-colored-j)" xlink:href="#wuilt-logo-w-colored-i"/>
        <path fill="url(#wuilt-logo-w-colored-k)" d="M37.1617474,54.4274915 C41.189572,45.4001812 43.5263131,36.9354369 44.1624524,29.0351339 C44.8001781,21.1367062 43.6849514,14.494676 40.8215314,9.09779211 C37.9581113,3.70840907 33.1291637,1.00996711 26.3410339,1.00996711 C20.82201,1.00996711 15.9994078,3.58464453 11.8621228,8.72274805 C7.72483787,13.864602 4.54255501,20.2591031 2.31368791,27.9081266 C0.0864071915,35.5609005 -1.02723317,43.77249 -1.02723317,52.5466456 C-1.02723317,56.9749831 6.11492119,79.5431254 15.2434403,80.0101549 C24.2173173,80.4692727 35.16268,58.9035178 37.1617474,54.4274915 Z" mask="url(#wuilt-logo-w-colored-l)" opacity=".632"/>
        <path fill="#17C595" d="M78.7521584,28.4806457 C78.6659284,29.5610086 78.4441939,30.8818422 77.6813218,32.2404139 C77.3408011,32.8459789 76.9958808,33.4594424 76.2937218,33.9868983 C74.5831989,35.2726267 72.4327268,34.7864195 72.0165347,34.6898802 C71.649617,34.60475 70.2426592,34.2422887 69.0873523,33.0074628 C68.725714,32.6213055 67.9892389,31.7735146 67.9241264,30.718603 C67.8361365,29.2749011 69.0723941,28.2103355 70.6896477,26.7534692 C76.1810947,21.8089 76.586728,20.8803671 77.4173523,21.1840272 C79.2800976,21.8668236 78.859506,27.1352384 78.7521584,28.4806457"/>
      </g>
    </g>
    <g opacity=".1" transform="translate(38.404 87.317)">
      <path fill="url(#wuilt-logo-w-colored-m)" d="M0,16.1785834 C1.36131082,18.6182877 2.63349887,20.8388776 3.81656415,22.8403531 C4.99962943,24.8418286 6.13124796,26.6362267 7.21141974,28.2235472 C6.69696489,28.874403 6.16168451,29.4988618 5.60557859,30.0969236 C5.04947268,30.6949855 4.53264628,31.2501329 4.05509941,31.762366 L0,16.1785834 Z"/>
      <path fill="url(#wuilt-logo-w-colored-n)" d="M59.2760119,0 C60.3096647,0.317227126 61.7806321,0.713761034 63.6889142,1.18960172 C65.5971963,1.66544241 68.4596194,2.22058988 72.2761835,2.85504414 L70.1293662,7.13761034 L59.2760119,0 Z"/>
    </g>
  </g>
</svg>
