<svg width="100" height="100" viewBox="0 0 100 100" fill="none" xmlns="http://www.w3.org/2000/svg">
<circle cx="50" cy="50" r="50" fill="#F0FDFA"/>
<path fill-rule="evenodd" clip-rule="evenodd" d="M44.165 25.1981C44.165 22.7809 46.1246 20.8213 48.5419 20.8213H74.8028C77.2201 20.8213 79.1796 22.7809 79.1796 25.1981V42.7054C79.1796 45.1227 77.2201 47.0822 74.8028 47.0822H71.9877V52.9151C71.9877 53.5052 71.6322 54.0371 71.0871 54.2629C70.5419 54.4888 69.9144 54.3639 69.4971 53.9467L62.6328 47.0822H48.5419C46.1246 47.0822 44.165 45.1227 44.165 42.7054V25.1981Z" stroke="#1E293B" stroke-width="3" stroke-linecap="round" stroke-linejoin="round"/>
<path d="M52.9185 55.8361V67.6949C52.9185 70.1122 50.9589 72.0718 48.5417 72.0718H37.2739L30.5967 78.7489C30.1794 79.1662 29.5519 79.291 29.0068 79.0652C28.4616 78.8393 28.1062 78.3074 28.1062 77.7173V72.0718H25.1986C22.7813 72.0718 20.8218 70.1122 20.8218 67.6949V50.0004C20.8218 47.5831 22.7813 45.6235 25.1986 45.6235H35.4112" stroke="#1E293B" stroke-width="3" stroke-linecap="round" stroke-linejoin="round"/>
<path d="M56.6592 37.3903H66.6513" stroke="#0D9488" stroke-width="3" stroke-linecap="round" stroke-linejoin="round"/>
<path d="M67.5075 39.7238L63.3057 28.0522H60.0377L55.8359 39.7238" stroke="#0D9488" stroke-width="3" stroke-linecap="round" stroke-linejoin="round"/>
<path d="M30 63.7963C30 62.6153 30.2491 61.7076 30.7474 61.0731C31.2635 60.4209 31.8953 59.9715 32.6427 59.7247C32.3046 59.3193 32.0198 58.8434 31.7885 58.297C31.5749 57.7506 31.4682 57.1073 31.4682 56.367C31.4682 55.662 31.5838 54.9922 31.8152 54.3577C32.0465 53.7055 32.4025 53.1327 32.883 52.6392C33.3634 52.1457 33.9774 51.7491 34.7248 51.4495C35.4723 51.1498 36.3532 51 37.3676 51C38.6489 51 39.7255 51.2027 40.5975 51.6081C41.4695 52.0135 42.128 52.4806 42.5729 53.0093C42.6797 53.1327 42.6619 53.2649 42.5195 53.4059L40.8378 55.3888C40.6954 55.5122 40.5619 55.5122 40.4374 55.3888C39.6543 54.5956 38.7734 54.1991 37.7947 54.1991C37.0828 54.1991 36.5044 54.4106 36.0595 54.8336C35.6146 55.2566 35.3922 55.8735 35.3922 56.6843C35.3922 57.0897 35.4545 57.451 35.5791 57.7683C35.7036 58.0679 35.8549 58.3323 36.0329 58.5614C36.2108 58.7729 36.3888 58.9492 36.5667 59.0902C36.7625 59.2136 36.9227 59.3105 37.0472 59.381H42.7331C42.911 59.381 43 59.4692 43 59.6454V62.3157C43 62.492 42.911 62.5801 42.7331 62.5801H34.9384C34.4935 62.5801 34.1999 62.6858 34.0575 62.8974C33.9151 63.1265 33.8439 63.3909 33.8439 63.6905C33.8439 64.0959 33.9507 64.3779 34.1643 64.5365C34.3778 64.7128 34.796 64.8009 35.4189 64.8009H38.1684C38.3463 64.8009 38.4353 64.8891 38.4353 65.0653V67.7356C38.4353 67.9119 38.3463 68 38.1684 68H35.0719C33.4346 68 32.18 67.6651 31.308 66.9953C30.436 66.3432 30 65.2768 30 63.7963Z" fill="#0D9488"/>
</svg>
