<svg width="100" height="100" viewBox="0 0 100 100" fill="none" xmlns="http://www.w3.org/2000/svg">
<circle cx="50" cy="50" r="50" fill="#F0FDFA"/>
<path fill-rule="evenodd" clip-rule="evenodd" d="M79.1666 29.5946V70.4162C79.1666 73.6392 76.5562 76.2496 73.3332 76.2496H26.6666C23.4437 76.2496 20.8333 73.6392 20.8333 70.4162V29.6937C20.8333 26.4767 23.4378 23.8662 26.6549 23.8604L73.3216 23.7612C76.5474 23.7554 79.1666 26.3687 79.1666 29.5946Z" stroke="#1E293B" stroke-width="3" stroke-linecap="round" stroke-linejoin="round"/>
<path d="M35.3333 32.4704C35.3246 32.4704 35.3188 32.4762 35.3188 32.4849C35.3188 32.4937 35.3246 32.4995 35.3333 32.4995C35.3421 32.4995 35.3479 32.4937 35.3479 32.4849C35.3479 32.4762 35.3421 32.4704 35.3333 32.4704" stroke="#1E293B" stroke-width="3" stroke-linecap="round" stroke-linejoin="round"/>
<path d="M41.0975 32.4853C41.0887 32.4853 41.0829 32.4911 41.0829 32.4998C41.0829 32.5086 41.0887 32.5144 41.0975 32.5144C41.1062 32.5144 41.1121 32.5086 41.1121 32.4998C41.1121 32.4911 41.1062 32.4853 41.0975 32.4853" stroke="#1E293B" stroke-width="3" stroke-linecap="round" stroke-linejoin="round"/>
<path d="M29.5833 32.4994C29.5746 32.4994 29.5688 32.5052 29.5688 32.514C29.5688 32.5227 29.5746 32.5286 29.5833 32.5286C29.5921 32.5286 29.5979 32.5227 29.5979 32.514C29.5979 32.5052 29.5921 32.4994 29.5833 32.4994" stroke="#1E293B" stroke-width="3" stroke-linecap="round" stroke-linejoin="round"/>
<path d="M41.3958 47.8123H60.0625L58.0208 58.0206H43.4375L40.5208 43.4373H36.875" stroke="#0D9488" stroke-width="3" stroke-linecap="round" stroke-linejoin="round"/>
<path d="M56.6655 65.2085C56.7224 65.2654 56.7224 65.3578 56.6655 65.4147C56.6085 65.4717 56.5162 65.4717 56.4592 65.4147C56.4023 65.3578 56.4023 65.2654 56.4592 65.2085C56.5162 65.1515 56.6085 65.1515 56.6655 65.2085" stroke="#0D9488" stroke-width="3" stroke-linecap="round" stroke-linejoin="round"/>
<path d="M44.999 65.2085C45.0559 65.2654 45.0559 65.3578 44.999 65.4147C44.942 65.4717 44.8497 65.4717 44.7927 65.4147C44.7358 65.3578 44.7358 65.2654 44.7927 65.2085C44.8497 65.1515 44.942 65.1515 44.999 65.2085" stroke="#0D9488" stroke-width="3" stroke-linecap="round" stroke-linejoin="round"/>
</svg>
