<svg width="530" height="374" viewBox="0 0 530 374" fill="none" xmlns="http://www.w3.org/2000/svg">
<g clip-path="url(#clip0_410_10144)">
<rect width="530" height="374" rx="20" fill="#FBFBFB"/>
<circle opacity="0.5" cx="265" cy="277" r="166.146" stroke="#5EEAD4"/>
<circle opacity="0.5" cx="265" cy="277" r="198.822" stroke="#5EEAD4"/>
<circle opacity="0.5" cx="265" cy="277" r="231.498" stroke="#5EEAD4"/>
<circle opacity="0.5" cx="265" cy="277" r="264.5" stroke="#5EEAD4"/>
<g filter="url(#filter0_dd_410_10144)">
<rect x="85" y="107" width="360" height="204" rx="10" fill="white"/>
</g>
<path fill-rule="evenodd" clip-rule="evenodd" d="M110.527 144.191C109.591 145.504 108.138 146.195 106.851 145.915C106.196 145.756 105.605 145.401 105.156 144.898C104.432 143.967 104.368 142.823 104.262 142.84C104.156 142.857 104.262 143.458 104.195 143.475C104.127 143.492 103.513 142.243 103.347 140.743C103.253 139.807 103.266 138.864 103.385 137.931C103.501 136.721 103.727 135.525 104.059 134.356C104.101 134.204 104.411 133.085 104.813 132.052C105.724 129.659 107.562 126.647 109.193 126.173C109.735 126.035 110.304 126.052 110.837 126.224C110.977 126.27 111.101 126.357 111.192 126.474C111.304 126.65 111.346 126.861 111.311 127.067C111.26 127.49 110.701 128.655 110.133 129.862C109.499 131.127 108.943 132.43 108.469 133.763C107.88 135.357 107.397 136.989 107.024 138.647C106.738 139.824 106.612 141.036 106.651 142.247C106.685 142.671 106.952 143.475 107.499 143.632C108.045 143.789 108.816 143.272 109.367 142.294L110.527 144.191Z" fill="url(#paint0_linear_410_10144)"/>
<path opacity="0.4" fill-rule="evenodd" clip-rule="evenodd" d="M105.118 137.74C105.783 129.574 111.578 125.72 109.778 125.055C108.295 124.508 105.965 128.143 104.656 131.501C103.67 134.057 103.11 136.757 103 139.494C103.14 141.434 103.682 145.496 105.889 145.631C108.096 145.767 104.487 145.907 105.118 137.74Z" fill="url(#paint1_linear_410_10144)"/>
<path fill-rule="evenodd" clip-rule="evenodd" d="M111.146 138.6C111.141 138.091 111.199 137.583 111.32 137.088C111.409 136.698 111.579 136.332 111.819 136.012C111.901 135.896 112.009 135.8 112.134 135.732C112.259 135.663 112.397 135.625 112.54 135.618C112.806 135.618 112.963 135.775 112.963 136.088C112.968 136.495 112.9 136.9 112.764 137.283C112.596 137.811 112.388 138.325 112.141 138.82C111.875 139.367 111.612 139.871 111.345 140.332C111.216 139.764 111.149 139.183 111.146 138.6V138.6ZM120.829 140.294H120.762C120.328 141.171 119.794 141.994 119.169 142.747C118.617 143.412 117.99 144.012 117.301 144.534C116.719 144.992 116.072 145.36 115.382 145.627C114.829 145.861 114.237 145.988 113.637 146C112.987 146.009 112.345 145.851 111.773 145.542C111.238 145.245 110.783 144.822 110.447 144.31V144.31L109.252 142.255C108.814 141.313 108.594 140.283 108.609 139.244C108.6 138.145 108.776 137.053 109.13 136.012C109.437 135.066 109.947 134.199 110.625 133.471C110.91 133.152 111.259 132.896 111.65 132.721C112.04 132.546 112.463 132.455 112.891 132.454C113.953 132.454 114.708 132.81 115.157 133.522C115.622 134.315 115.805 135.242 115.678 136.152C115.512 137.728 114.927 139.232 113.984 140.506C113.445 141.302 112.812 142.03 112.099 142.675C112.223 143.033 112.446 143.349 112.743 143.585C113.119 143.867 113.578 144.016 114.048 144.009C114.865 144.009 115.45 143.556 116.081 143.06C116.575 142.662 117.019 142.205 117.403 141.701C117.885 141.113 118.318 140.485 118.694 139.824L118.644 139.778L120.829 140.294Z" fill="url(#paint2_linear_410_10144)"/>
<path opacity="0.5" fill-rule="evenodd" clip-rule="evenodd" d="M113.7 139.583C114.209 138.507 114.528 137.353 114.645 136.169C114.759 135.245 114.603 134.308 114.196 133.471C114.012 133.119 113.729 132.828 113.382 132.635C113.035 132.441 112.639 132.354 112.243 132.382C111.86 132.391 111.484 132.49 111.146 132.67C110.807 132.85 110.516 133.107 110.294 133.42C109.705 134.188 109.273 135.064 109.024 135.999C108.717 137.078 108.566 138.195 108.575 139.316C108.575 139.909 109.536 142.946 110.765 143.009C111.993 143.073 113.433 140.188 113.7 139.583Z" fill="url(#paint3_linear_410_10144)"/>
<path fill-rule="evenodd" clip-rule="evenodd" d="M120.062 136.143C119.905 136.702 119.688 137.241 119.414 137.753C118.927 137.21 118.629 136.523 118.567 135.796C118.465 135.012 118.482 134.216 118.618 133.437C118.723 132.754 118.958 132.098 119.313 131.505C119.643 130.976 120.029 130.76 120.461 130.857C120.694 130.925 120.808 131.247 120.808 131.827C120.797 132.509 120.731 133.189 120.609 133.86C120.476 134.632 120.294 135.395 120.062 136.143V136.143ZM120.736 140.324L118.673 139.824V139.799C118.025 139.249 117.479 138.589 117.059 137.85C116.97 137.685 115.479 134.953 116.403 131.92C116.826 130.514 117.707 129.273 117.551 129.167C117.462 129.108 117.127 129.498 117.089 129.464C117.384 128.851 117.819 128.315 118.36 127.901C118.92 127.413 119.583 127.058 120.3 126.863C120.925 126.674 121.593 126.674 122.219 126.863C123.348 127.227 123.913 128.402 123.913 130.387C123.913 132.372 123.182 134.984 121.719 138.223C122.207 137.951 122.653 137.609 123.04 137.206C123.495 136.755 123.912 136.266 124.286 135.745C124.667 135.247 125.017 134.725 125.332 134.182C125.379 134.098 125.578 133.759 125.866 133.293C126.234 132.713 126.383 132.552 126.603 132.446C126.823 132.34 127.225 132.234 127.45 132.42C127.552 132.505 127.687 132.725 127.45 133.513C127.213 134.301 126.755 134.936 126.056 135.944C125.547 136.674 124.98 137.362 124.362 138.003C123.814 138.572 123.204 139.079 122.545 139.515C121.994 139.883 121.375 140.135 120.723 140.256L120.736 140.324Z" fill="url(#paint4_linear_410_10144)"/>
<path opacity="0.63" fill-rule="evenodd" clip-rule="evenodd" d="M121.91 135.296C122.501 134.034 122.875 132.681 123.015 131.294C123.144 130.217 122.96 129.126 122.486 128.151C122.269 127.74 121.938 127.4 121.531 127.175C121.125 126.949 120.662 126.847 120.198 126.88C119.75 126.89 119.31 127.005 118.913 127.216C118.517 127.426 118.175 127.726 117.915 128.092C117.217 128.99 116.704 130.018 116.407 131.116C116.048 132.379 115.871 133.687 115.882 135C115.882 135.699 117.009 139.235 118.449 139.329C119.889 139.422 121.592 136.012 121.91 135.296Z" fill="url(#paint5_linear_410_10144)"/>
<path fill-rule="evenodd" clip-rule="evenodd" d="M128.475 131.205C128.461 131.412 128.404 131.614 128.306 131.798C128.254 131.905 128.179 131.999 128.085 132.073C127.987 132.137 127.876 132.18 127.76 132.199C127.644 132.218 127.526 132.213 127.412 132.183C127.234 132.143 127.072 132.052 126.946 131.921C126.849 131.823 126.785 131.697 126.764 131.561C126.764 131.332 126.946 131.162 127.187 130.934C128.034 130.154 128.119 130.01 128.25 130.057C128.543 130.163 128.479 130.993 128.462 131.205" fill="#17C595"/>
<g opacity="0.1">
<path opacity="0.1" fill-rule="evenodd" clip-rule="evenodd" d="M109.312 142.365C109.524 142.751 109.736 143.102 109.914 143.416C110.091 143.729 110.278 144.017 110.447 144.263C110.367 144.365 110.282 144.462 110.197 144.555L109.952 144.818L109.312 142.365Z" fill="url(#paint6_linear_410_10144)"/>
<path opacity="0.1" fill-rule="evenodd" clip-rule="evenodd" d="M118.673 139.824C118.834 139.875 119.067 139.939 119.368 140.015C119.669 140.091 120.122 140.176 120.724 140.277L120.368 140.959L118.673 139.824Z" fill="url(#paint7_linear_410_10144)"/>
</g>
<circle cx="422.205" cy="135.905" r="4.79493" fill="#E2E8F0"/>
<circle cx="409.19" cy="135.905" r="4.79493" fill="#E2E8F0"/>
<circle cx="396.175" cy="135.905" r="4.79493" fill="#E2E8F0"/>
<rect x="133.825" y="133.165" width="32.8795" height="5.47992" rx="2.73996" fill="#E2E8F0"/>
<rect x="103" y="200.979" width="32.8795" height="5.47992" rx="2.73996" fill="#E2E8F0"/>
<rect x="103" y="211.938" width="102.748" height="5.47992" rx="2.73996" fill="#E2E8F0"/>
<rect x="103" y="222.898" width="63.704" height="5.47992" rx="2.73996" fill="#E2E8F0"/>
<rect x="103" y="239.338" width="63.704" height="16.4397" rx="4.10994" fill="#CBD5E1"/>
<rect x="170.129" y="239.338" width="45.8943" height="16.4397" rx="4.10994" fill="#E2E8F0"/>
<rect x="118.755" y="244.818" width="32.8795" height="5.47992" rx="2.73996" fill="#E2E8F0"/>
<rect x="184.514" y="244.818" width="17.8097" height="5.47992" rx="2.73996" fill="#CBD5E1"/>
<rect x="229.038" y="165.359" width="197.962" height="125.353" rx="5.47992" fill="#E2E8F0"/>
<rect x="172.184" y="133.165" width="48.6343" height="5.47992" rx="2.73996" fill="#E2E8F0"/>
<rect x="226.298" y="133.165" width="48.6343" height="5.47992" rx="2.73996" fill="#E2E8F0"/>
<g filter="url(#filter1_d_410_10144)">
<path fill-rule="evenodd" clip-rule="evenodd" d="M412 79.6882C412 71.5761 418.576 65 426.688 65H462.435C470.547 65 477.123 71.5761 477.123 79.6882V115.435C477.123 123.547 470.547 130.123 462.435 130.123H426.688C418.576 130.123 412 123.547 412 115.435V79.6882Z" fill="url(#paint8_linear_410_10144)"/>
</g>
<mask id="mask0_410_10144" style="mask-type:alpha" maskUnits="userSpaceOnUse" x="412" y="65" width="66" height="66">
<path fill-rule="evenodd" clip-rule="evenodd" d="M412 79.6882C412 71.5761 418.576 65 426.688 65H462.435C470.547 65 477.123 71.5761 477.123 79.6882V115.435C477.123 123.547 470.547 130.123 462.435 130.123H426.688C418.576 130.123 412 123.547 412 115.435V79.6882Z" fill="white"/>
</mask>
<g mask="url(#mask0_410_10144)">
</g>
<path d="M450.306 90.6604H438.722C438.083 90.6604 437.564 91.1793 437.564 91.8187V114.985C437.564 115.625 438.083 116.143 438.722 116.143H450.306C450.945 116.143 451.464 115.625 451.464 114.985V91.8187C451.464 91.1793 450.945 90.6604 450.306 90.6604Z" fill="#FFC107"/>
<path d="M438.722 102.244H427.139C426.5 102.244 425.981 102.763 425.981 103.402V114.985C425.981 115.625 426.5 116.144 427.139 116.144H438.722C439.362 116.144 439.881 115.625 439.881 114.985V103.402C439.881 102.763 439.362 102.244 438.722 102.244Z" fill="#FFC107"/>
<path d="M461.978 78.9805H450.328C449.685 78.9805 449.163 79.5007 449.163 80.1418V114.982C449.163 115.623 449.685 116.143 450.328 116.143H461.978C462.621 116.143 463.143 115.623 463.143 114.982V80.1418C463.143 79.5007 462.621 78.9805 461.978 78.9805Z" fill="#FFA000"/>
<g filter="url(#filter2_d_410_10144)">
<path fill-rule="evenodd" clip-rule="evenodd" d="M236 27.5633C236 19.5202 242.52 13 250.563 13H286.007C294.05 13 300.57 19.5202 300.57 27.5633V63.0066C300.57 71.0497 294.05 77.5699 286.007 77.5699H250.563C242.52 77.5699 236 71.0497 236 63.0066V27.5633Z" fill="url(#paint9_linear_410_10144)"/>
</g>
<mask id="mask1_410_10144" style="mask-type:alpha" maskUnits="userSpaceOnUse" x="236" y="13" width="65" height="65">
<path fill-rule="evenodd" clip-rule="evenodd" d="M236 27.5633C236 19.5202 242.52 13 250.563 13H286.007C294.05 13 300.57 19.5202 300.57 27.5633V63.0066C300.57 71.0497 294.05 77.5699 286.007 77.5699H250.563C242.52 77.5699 236 71.0497 236 63.0066V27.5633Z" fill="white"/>
</mask>
<g mask="url(#mask1_410_10144)">
</g>
<path d="M271.495 62.3071L265.101 55.9054L278.836 42.03L285.348 48.5405L271.495 62.3071Z" fill="#8AB4F8"/>
<path d="M271.542 34.7366L265.031 28.2246L251.226 42.0299C249.428 43.8268 249.426 46.7391 251.223 48.5374C251.225 48.5389 251.226 48.5404 251.226 48.5404L265.031 62.3457L271.418 55.9292L260.986 45.2941L271.542 34.7366Z" fill="#4285F4"/>
<path d="M285.348 42.0301L271.542 28.2247C269.744 26.4264 266.829 26.4264 265.03 28.2247C263.232 30.0231 263.232 32.9384 265.03 34.7352L278.843 48.5405C280.642 50.3389 283.557 50.3389 285.354 48.5405C287.152 46.7422 287.152 43.8269 285.354 42.0301H285.348Z" fill="#8AB4F8"/>
<circle cx="268.236" cy="59.1443" r="4.563" fill="#246FDB"/>
<g filter="url(#filter3_d_410_10144)">
<path fill-rule="evenodd" clip-rule="evenodd" d="M36 161.563C36 153.52 42.5202 147 50.5633 147H86.0066C94.0497 147 100.57 153.52 100.57 161.563V197.007C100.57 205.05 94.0497 211.57 86.0066 211.57H50.5633C42.5202 211.57 36 205.05 36 197.007V161.563Z" fill="url(#paint10_linear_410_10144)"/>
</g>
<mask id="mask2_410_10144" style="mask-type:alpha" maskUnits="userSpaceOnUse" x="36" y="147" width="65" height="65">
<path fill-rule="evenodd" clip-rule="evenodd" d="M36 161.563C36 153.52 42.5202 147 50.5633 147H86.0066C94.0497 147 100.57 153.52 100.57 161.563V197.007C100.57 205.05 94.0497 211.57 86.0066 211.57H50.5633C42.5202 211.57 36 205.05 36 197.007V161.563Z" fill="white"/>
</mask>
<g mask="url(#mask2_410_10144)">
</g>
<path fill-rule="evenodd" clip-rule="evenodd" d="M66.5925 161.154L53.3785 168.856C52.5047 169.365 51.9673 170.3 51.9673 171.312V187.066C51.9673 188.078 52.5055 189.014 53.3804 189.523L66.9204 197.4C67.8068 197.916 68.9023 197.914 69.787 197.395L83.2165 189.525C84.0869 189.015 84.6217 188.081 84.6217 187.072V171.341C84.6217 170.314 84.0674 169.367 83.1719 168.863L69.4166 161.132C68.5379 160.638 67.4634 160.647 66.5925 161.154Z" fill="white"/>
<path fill-rule="evenodd" clip-rule="evenodd" d="M70.9173 171.705L65.4692 186.642Z" fill="#4262A4"/>
<path d="M70.9173 171.705L65.4692 186.642" stroke="#4363A7" stroke-width="2.64746" stroke-linecap="square"/>
<path fill-rule="evenodd" clip-rule="evenodd" d="M75.541 174.896L81.1567 179.67L75.6961 184.61" fill="white"/>
<path d="M75.541 174.896L81.1567 179.67L75.6961 184.61" stroke="#4363A7" stroke-width="1.87604"/>
<path fill-rule="evenodd" clip-rule="evenodd" d="M60.8989 174.896L55.2833 179.67L60.7438 184.61" fill="white"/>
<path d="M60.8989 174.896L55.2833 179.67L60.7438 184.61" stroke="#4363A7" stroke-width="1.87604"/>
<path d="M123 39.1665C114.687 39.1665 107.958 45.5802 107.958 53.4165C107.958 57.5326 109.779 61.1755 112.708 63.7886V70.8332L118.884 67.113C120.148 67.4284 121.574 67.6665 123 67.6665C131.312 67.6665 138.041 61.2528 138.041 53.4165C138.041 45.5802 131.312 39.1665 123 39.1665Z" fill="#448AFF"/>
<path d="M113.5 58.1666L121.416 49.4583L125.375 53.4166L132.5 49.4583L124.583 58.1666L120.625 54.2083L113.5 58.1666Z" fill="white"/>
<path d="M477.867 310.305L480.562 300.469C478.898 297.59 478.027 294.324 478.027 290.98C478.031 280.516 486.547 272 497.016 272C502.094 272.004 506.859 273.98 510.445 277.566C514.027 281.152 516.004 285.922 516 290.992C515.996 301.461 507.477 309.973 497.016 309.973C497.012 309.973 497.016 309.973 497.016 309.973H497.008C493.828 309.973 490.707 309.176 487.934 307.664L477.867 310.305Z" fill="white"/>
<path d="M477.867 310.805C477.734 310.805 477.609 310.75 477.511 310.656C477.386 310.527 477.34 310.344 477.386 310.172L480.023 300.535C478.39 297.629 477.527 294.328 477.527 290.98C477.531 280.238 486.273 271.5 497.015 271.5C502.222 271.504 507.117 273.531 510.797 277.215C514.476 280.895 516.504 285.789 516.5 290.992C516.496 301.734 507.754 310.473 497.015 310.473C493.824 310.473 490.672 309.688 487.871 308.195L477.996 310.785C477.953 310.797 477.91 310.805 477.867 310.805Z" fill="white"/>
<path d="M497.016 272C502.094 272.004 506.859 273.98 510.445 277.566C514.027 281.152 516.004 285.922 516 290.992C515.996 301.461 507.476 309.973 497.016 309.973H497.008C493.828 309.973 490.707 309.176 487.933 307.664L477.867 310.305L480.562 300.469C478.898 297.59 478.027 294.324 478.027 290.98C478.031 280.516 486.547 272 497.016 272ZM497.016 271C485.996 271 477.031 279.961 477.027 290.98C477.027 294.348 477.875 297.664 479.488 300.602L476.902 310.039C476.808 310.387 476.906 310.754 477.156 311.008C477.348 311.199 477.605 311.305 477.867 311.305C477.953 311.305 478.039 311.293 478.121 311.27L487.808 308.73C490.637 310.199 493.808 310.973 497.008 310.977C508.031 310.977 516.996 302.012 517 290.996C517.004 285.656 514.926 280.637 511.152 276.859C507.379 273.082 502.355 271.004 497.016 271Z" fill="#CFD8DC"/>
<path d="M508.176 279.832C505.195 276.852 501.234 275.207 497.02 275.207C488.316 275.207 481.234 282.281 481.23 290.98C481.23 293.961 482.066 296.863 483.645 299.375L484.02 299.973L482.426 305.793L488.398 304.227L488.977 304.57C491.398 306.008 494.176 306.77 497.008 306.77H497.016C505.711 306.77 512.789 299.691 512.793 290.992C512.797 286.777 511.156 282.813 508.176 279.832Z" fill="#40C351"/>
<path fill-rule="evenodd" clip-rule="evenodd" d="M492.27 283.047C491.914 282.254 491.539 282.238 491.199 282.227C490.922 282.215 490.605 282.215 490.289 282.215C489.977 282.215 489.461 282.332 489.027 282.809C488.59 283.281 487.363 284.43 487.363 286.766C487.363 289.098 489.066 291.355 489.301 291.672C489.539 291.984 492.586 296.93 497.406 298.832C501.414 300.41 502.23 300.098 503.098 300.02C503.969 299.938 505.906 298.871 506.301 297.762C506.695 296.656 506.695 295.707 506.578 295.508C506.461 295.309 506.145 295.191 505.668 294.953C505.195 294.715 502.863 293.57 502.426 293.41C501.992 293.254 501.676 293.176 501.359 293.648C501.043 294.121 500.133 295.191 499.855 295.508C499.578 295.824 499.305 295.863 498.828 295.629C498.355 295.391 496.828 294.891 495.016 293.273C493.605 292.016 492.652 290.465 492.375 289.988C492.098 289.516 492.344 289.258 492.582 289.02C492.797 288.809 493.059 288.465 493.297 288.188C493.531 287.91 493.609 287.715 493.77 287.398C493.926 287.082 493.848 286.805 493.73 286.566C493.613 286.328 492.691 283.984 492.27 283.047Z" fill="white"/>
<path d="M79.7617 337.359H79.7695C79.7695 337.359 76 342.891 72.8281 347C70.0898 350.551 69.2891 353.59 69.0586 355.059C68.9687 355.602 68.5312 356 68 356C67.4688 356 67.0313 355.602 66.9414 355.059C66.7109 353.59 65.9102 350.551 63.1719 347C62.75 346.449 62.3203 345.879 61.8906 345.301L72.2383 333L80.5703 323.121C81.4883 325.051 82 327.211 82 329.5C82 332.398 81.1719 335.09 79.7617 337.359Z" fill="#48B564"/>
<path d="M72.2383 333L61.8906 345.301C59.0703 341.52 56.2305 337.359 56.2305 337.359H56.2383C55.9414 336.879 55.6719 336.391 55.4414 335.879L63.7617 326C62.9687 326.949 62.5 328.172 62.5 329.5C62.5 332.539 64.9609 335 68 335C69.7109 335 71.2383 334.219 72.2383 333Z" fill="#FCC60E"/>
<path d="M72.3984 315.738L63.8281 325.922L57.2695 320.199C59.8281 317.02 63.6914 315 68 315C69.5391 315 71.0195 315.262 72.3984 315.738Z" fill="#2C85EB"/>
<path d="M63.8281 325.922L63.7617 326L55.4414 335.879C54.5195 333.949 54 331.789 54 329.5C54 325.961 55.2305 322.711 57.2695 320.199L63.8281 325.922Z" fill="#ED5748"/>
<path d="M72.2383 333C73.0313 332.051 73.5 330.828 73.5 329.5C73.5 326.461 71.0391 324 68 324C66.2891 324 64.7617 324.781 63.7617 326L72.3984 315.738C75.9883 316.961 78.9297 319.648 80.5703 323.121L72.2383 333Z" fill="#5695F6"/>
</g>
<defs>
<filter id="filter0_dd_410_10144" x="77" y="103" width="376" height="220" filterUnits="userSpaceOnUse" color-interpolation-filters="sRGB">
<feFlood flood-opacity="0" result="BackgroundImageFix"/>
<feColorMatrix in="SourceAlpha" type="matrix" values="0 0 0 0 0 0 0 0 0 0 0 0 0 0 0 0 0 0 127 0" result="hardAlpha"/>
<feOffset dy="4"/>
<feGaussianBlur stdDeviation="4"/>
<feColorMatrix type="matrix" values="0 0 0 0 0.356863 0 0 0 0 0.407843 0 0 0 0 0.443137 0 0 0 0.24 0"/>
<feBlend mode="normal" in2="BackgroundImageFix" result="effect1_dropShadow_410_10144"/>
<feColorMatrix in="SourceAlpha" type="matrix" values="0 0 0 0 0 0 0 0 0 0 0 0 0 0 0 0 0 0 127 0" result="hardAlpha"/>
<feOffset/>
<feGaussianBlur stdDeviation="0.5"/>
<feColorMatrix type="matrix" values="0 0 0 0 0.101961 0 0 0 0 0.12549 0 0 0 0 0.141176 0 0 0 0.32 0"/>
<feBlend mode="normal" in2="effect1_dropShadow_410_10144" result="effect2_dropShadow_410_10144"/>
<feBlend mode="normal" in="SourceGraphic" in2="effect2_dropShadow_410_10144" result="shape"/>
</filter>
<filter id="filter1_d_410_10144" x="402.871" y="62.8933" width="83.3819" height="83.3819" filterUnits="userSpaceOnUse" color-interpolation-filters="sRGB">
<feFlood flood-opacity="0" result="BackgroundImageFix"/>
<feColorMatrix in="SourceAlpha" type="matrix" values="0 0 0 0 0 0 0 0 0 0 0 0 0 0 0 0 0 0 127 0" result="hardAlpha"/>
<feOffset dy="7.02245"/>
<feGaussianBlur stdDeviation="4.5646"/>
<feColorMatrix type="matrix" values="0 0 0 0 0 0 0 0 0 0 0 0 0 0 0 0 0 0 0.15 0"/>
<feBlend mode="normal" in2="BackgroundImageFix" result="effect1_dropShadow_410_10144"/>
<feBlend mode="normal" in="SourceGraphic" in2="effect1_dropShadow_410_10144" result="shape"/>
</filter>
<filter id="filter2_d_410_10144" x="225.138" y="10.4934" width="86.2937" height="86.2937" filterUnits="userSpaceOnUse" color-interpolation-filters="sRGB">
<feFlood flood-opacity="0" result="BackgroundImageFix"/>
<feColorMatrix in="SourceAlpha" type="matrix" values="0 0 0 0 0 0 0 0 0 0 0 0 0 0 0 0 0 0 127 0" result="hardAlpha"/>
<feOffset dy="8.35532"/>
<feGaussianBlur stdDeviation="5.43096"/>
<feColorMatrix type="matrix" values="0 0 0 0 0 0 0 0 0 0 0 0 0 0 0 0 0 0 0.15 0"/>
<feBlend mode="normal" in2="BackgroundImageFix" result="effect1_dropShadow_410_10144"/>
<feBlend mode="normal" in="SourceGraphic" in2="effect1_dropShadow_410_10144" result="shape"/>
</filter>
<filter id="filter3_d_410_10144" x="25.1381" y="144.493" width="86.2937" height="86.2937" filterUnits="userSpaceOnUse" color-interpolation-filters="sRGB">
<feFlood flood-opacity="0" result="BackgroundImageFix"/>
<feColorMatrix in="SourceAlpha" type="matrix" values="0 0 0 0 0 0 0 0 0 0 0 0 0 0 0 0 0 0 127 0" result="hardAlpha"/>
<feOffset dy="8.35532"/>
<feGaussianBlur stdDeviation="5.43096"/>
<feColorMatrix type="matrix" values="0 0 0 0 0 0 0 0 0 0 0 0 0 0 0 0 0 0 0.15 0"/>
<feBlend mode="normal" in2="BackgroundImageFix" result="effect1_dropShadow_410_10144"/>
<feBlend mode="normal" in="SourceGraphic" in2="effect1_dropShadow_410_10144" result="shape"/>
</filter>
<linearGradient id="paint0_linear_410_10144" x1="107.834" y1="145.196" x2="106.852" y2="120.554" gradientUnits="userSpaceOnUse">
<stop stop-color="#FF1C85"/>
<stop offset="1" stop-color="#FDAE05"/>
</linearGradient>
<linearGradient id="paint1_linear_410_10144" x1="106.498" y1="139.996" x2="111.139" y2="129.336" gradientUnits="userSpaceOnUse">
<stop stop-color="white" stop-opacity="0.65"/>
<stop offset="1" stop-color="#D8D8D8" stop-opacity="0"/>
</linearGradient>
<linearGradient id="paint2_linear_410_10144" x1="109.558" y1="141.099" x2="117.899" y2="138.626" gradientUnits="userSpaceOnUse">
<stop stop-color="#FF2C77"/>
<stop offset="1" stop-color="#6723A5"/>
</linearGradient>
<linearGradient id="paint3_linear_410_10144" x1="111.007" y1="132.087" x2="111.915" y2="137.621" gradientUnits="userSpaceOnUse">
<stop stop-color="white" stop-opacity="0.67"/>
<stop offset="1" stop-color="#D8D8D8" stop-opacity="0"/>
</linearGradient>
<linearGradient id="paint4_linear_410_10144" x1="123.518" y1="128.6" x2="119.032" y2="140.106" gradientUnits="userSpaceOnUse">
<stop stop-color="#00F490"/>
<stop offset="1" stop-color="#6723A5"/>
</linearGradient>
<linearGradient id="paint5_linear_410_10144" x1="119.555" y1="126.612" x2="117.301" y2="134.274" gradientUnits="userSpaceOnUse">
<stop stop-color="white" stop-opacity="0.69"/>
<stop offset="1" stop-color="#D8D8D8" stop-opacity="0"/>
</linearGradient>
<linearGradient id="paint6_linear_410_10144" x1="109.581" y1="142.159" x2="110.532" y2="143.885" gradientUnits="userSpaceOnUse">
<stop stop-opacity="0"/>
<stop offset="1"/>
</linearGradient>
<linearGradient id="paint7_linear_410_10144" x1="-1518.64" y1="-436.165" x2="-1512.35" y2="-430.994" gradientUnits="userSpaceOnUse">
<stop stop-opacity="0"/>
<stop offset="1"/>
</linearGradient>
<linearGradient id="paint8_linear_410_10144" x1="443.202" y1="40.0039" x2="387.282" y2="96.1654" gradientUnits="userSpaceOnUse">
<stop stop-color="white"/>
<stop offset="1" stop-color="#E7E7E7"/>
</linearGradient>
<linearGradient id="paint9_linear_410_10144" x1="266.937" y1="-11.7836" x2="211.492" y2="43.9005" gradientUnits="userSpaceOnUse">
<stop stop-color="white"/>
<stop offset="1" stop-color="#E7E7E7"/>
</linearGradient>
<linearGradient id="paint10_linear_410_10144" x1="66.9368" y1="122.216" x2="11.4921" y2="177.901" gradientUnits="userSpaceOnUse">
<stop stop-color="#577BC8"/>
<stop offset="1" stop-color="#3B5998"/>
</linearGradient>
<clipPath id="clip0_410_10144">
<rect width="530" height="374" fill="white"/>
</clipPath>
</defs>
</svg>
